<!-- icons.svg (só uma vez, incluído no <body> ou via server-include) -->
<svg xmlns="http://www.w3.org/2000/svg" style="display:none">
  <symbol id="omie-logo" viewBox="0 0 400 190.63" fill="currentColor">
    <path fill="#91b766" d="M170.26 54.53c-3.93.53-7.84 1.56-9.71 2.57l-2 .98c-.83.4-1.73.9-2 1.12-.49.4-1.1.83-2.1 1.47-1 .66-3.81 3.22-6.07 5.54-.87.9-1.18 1.1-1.7 1.1-.97 0-1.02-.25-1.02-5.59 0-4.64-.01-4.86-.39-5.2-.37-.34-.99-.35-14.42-.3-13.8.05-14.5.08-14.78.49-.17.25-.2 32.93-.03 33.37.07.18.33.4.59.5.35.13 25.22.26 27.13.14.15-.01 1.01.04 1.9.11 2.57.21 3.37-.56 4.12-3.95.3-1.41 2.99-4.87 4.35-5.6 4.62-2.5 8.36-2.9 11.45-1.23.42.22.83.4.92.4 1.7 0 5.28 5.97 5.28 8.82 0 .78.51 1.48 1.1 1.5 6.18.14 30.86-.05 31.27-.25.42-.2.58-.47.8-1.39a9 9 0 0 1 .5-1.52c.12-.21.27-.62.34-.91.76-3.18 5.53-6.77 9.83-7.4 5.33-.77 10.67 3.21 11.72 8.76.34 1.77.53 2.22 1.08 2.51.53.28 30.36.27 30.88-.01 1.44-.77.6-13.07-1.23-18.09-.16-.45-.3-.98-.3-1.16 0-.18-.2-.71-.45-1.18a9.69 9.69 0 0 1-.6-1.31 15 15 0 0 0-1.02-1.95 92.84 92.84 0 0 1-1.17-2c-.5-.92-3.11-3.65-4.71-4.94-.5-.4-.96-.78-1.01-.85a6.1 6.1 0 0 0-.96-.55 5 5 0 0 1-.95-.57c-.3-.42-3.6-1.78-5.81-2.38-4.26-1.17-4.63-1.22-9.82-1.22-7.64 0-12.66 1.07-16.97 3.62-.16.1-.63.35-1.05.57-1.79.95-6.57 4.86-9.09 7.44-2.28 2.34-2.76 2.37-4.1.25a29.58 29.58 0 0 0-4.5-5.42l-1.83-1.67a3.02 3.02 0 0 0-.84-.62c-.1 0-.43-.18-.75-.41-.81-.58-3.04-1.68-3.4-1.68a.83.83 0 0 1-.48-.17c-.55-.49-2.44-.96-7.04-1.74-1.15-.2-9.5-.2-10.96 0m-53.6 50.84c-.74.2-.75.35-.7 17.93.05 13.67.1 17.05.3 17.25.43.43 30.87.36 31.4-.07.6-.49.67-33.63.07-34.62l-.38-.62-15.2.03c-8.35 0-15.32.05-15.49.1m55.6.32c-.33.5-.36 34.63-.03 34.95.28.29 31.14.2 31.43-.09.4-.4.46-33.96.06-34.74l-.3-.57H172.55l-.29.45m55.97.06c-.57.72-.54 34.13.03 34.7.44.43 31.02.54 31.45.1.26-.25.5-33.3.26-34.3-.27-1.06.62-1-16.02-1h-15.32l-.4.5m-128.88.63c-.19.11-.2.18-.02.3.12.07.31.05.42-.06.25-.25-.07-.45-.4-.24"/>
      <path fill="#bcbcbc" d="M275.31 24.16c-.16.06-.35.2-.43.32-.17.25-.19 17.45-.02 18.47l.12.71h21.11l.01-.43c.01-.74.02-18.52 0-18.87 0-.34-19.94-.52-20.79-.2m-229.71 30c-1.2.09-3 .33-4 .54-1.02.2-2.32.43-2.9.5-.57.07-1.18.2-1.34.29-.16.08-1.1.37-2.1.64-1.9.5-4.88 1.55-5.22 1.81-.11.09-.54.27-.96.4a46.1 46.1 0 0 0-5.44 2.86c-.05.08-.3.25-.57.38-.26.14-.7.41-.95.61L20.5 63.4A42.29 42.29 0 0 0 5.7 84.46c-1.36 4.55-1.58 6-.97 6.55.36.32 30.1.5 31.67.2.7-.15.87-.41 1.34-2.13 1.64-6.03 6.38-11.2 10.97-11.97.42-.06 1.19-.24 1.7-.39 6.38-1.81 14.56 3.46 16.8 10.83.57 1.86 1.06 3.1 1.37 3.44.32.35 30.66.5 31.9.17.75-.21.9-1.19.42-2.8-.22-.73-.46-1.71-.53-2.18-.07-.48-.29-1.29-.48-1.81a23.8 23.8 0 0 1-.56-1.81c-.56-2.22-3.5-7.98-5.18-10.2-2.5-3.3-4.66-5.7-6.55-7.28L86 63.72a18.1 18.1 0 0 0-1.43-1.05 58 58 0 0 1-1.57-1.07 48.47 48.47 0 0 0-6.12-3.27c-.39-.13-.8-.3-.91-.4-1.08-.84-7.44-2.46-14.19-3.6-1.47-.25-13.56-.38-16.17-.18m12.55.18c1.63.1 3.51.3 4.2.46.68.15 1.84.33 2.57.4 2.26.23 8.53 1.95 10.49 2.88.52.26 1.03.46 1.12.46.15 0 2.97 1.38 4.21 2.06 5.24 2.89 10.8 8.08 13.73 12.8l.61.9c.58.8 2.62 4.77 2.9 5.61.12.38.39 1.02.6 1.42.2.41.37.84.37.95 0 .11.27 1.02.59 2 .32 1 .67 2.34.76 3 .1.65.3 1.53.44 1.95.24.71.23.81-.1 1.25l-.38.47H68.92l-.3-.43a3.45 3.45 0 0 1-.46-1.1c-.08-.36-.2-.74-.28-.85-.07-.1-.25-.62-.39-1.14-.89-3.39-5.02-8.58-7.43-9.35-.26-.08-.69-.3-.95-.49-.56-.4-3.63-1.24-5.15-1.41-1.87-.22-6.78.75-7.6 1.5-.2.17-.43.3-.53.3-.42 0-2.71 1.68-3.78 2.76-1 1.02-1.49 1.66-2.96 3.92-.37.57-1.4 3.28-1.8 4.78-.45 1.62.74 1.51-16.8 1.51H4.94l-.2-.5c-.14-.39-.09-.88.22-2.05.23-.85.54-2.1.68-2.78.15-.69.44-1.6.65-2.05.2-.45.37-.9.37-1 0-.3 1.55-3.88 1.81-4.2.14-.16.36-.63.5-1.05.13-.42.35-.85.47-.95.12-.1.4-.54.62-.95.22-.42.7-1.2 1.08-1.72.38-.52.82-1.17 1-1.43a46.93 46.93 0 0 1 8.36-8.54c.54-.45 4.07-2.8 4.68-3.12l1.43-.76c1.75-.94 2.53-1.3 2.78-1.3.14 0 .53-.18.87-.39.34-.2 1.02-.48 1.52-.6s1.2-.36 1.58-.54c.36-.18 1.3-.48 2.1-.66.78-.18 1.8-.46 2.27-.6.46-.16 1.84-.42 3.05-.57 1.21-.16 2.48-.37 2.82-.48 1.45-.47 9.45-.67 14.54-.37m286.08.5c-.63.14-2.08.39-3.24.56-1.15.17-2.19.39-2.3.49-.12.1-.87.34-1.67.55-.8.2-1.64.5-1.88.65-.24.15-.83.38-1.3.5-.47.12-1.03.38-1.24.56-.2.19-.66.43-1 .55-.34.11-.9.41-1.24.67-.34.25-.83.53-1.1.6-.26.09-.58.31-.72.5-.14.2-.36.36-.5.36-.13 0-.5.24-.83.52-1.2 1.09-2.3 1.96-2.47 1.96-.1 0-.28.21-.4.48-.12.26-.35.47-.5.47-.17 0-.4.22-.52.47-.12.27-.38.53-.58.6-.2.06-.45.3-.56.55-.11.24-.4.53-.66.64-.25.12-.45.33-.45.47 0 .14-.2.43-.43.64-.46.4-1.6 1.91-2.02 2.68-.14.25-.38.5-.52.56-.15.06-.27.25-.27.44 0 .18-.21.62-.47.98-.25.36-.64 1.03-.86 1.5a7.3 7.3 0 0 1-.65 1.14c-.14.16-.35.66-.47 1.1-.13.44-.36.92-.5 1.07a3.4 3.4 0 0 0-.5 1.2 8.45 8.45 0 0 1-.58 1.6c-.19.36-.47 1.3-.63 2.1-.16.79-.41 1.69-.57 2-.16.31-.38 1.37-.5 2.36-.12.98-.34 2.18-.5 2.67-.7 2.27-.82 17.26-.15 19.15a21 21 0 0 1 .57 2.95c.16 1.19.45 2.56.64 3.05.19.5.45 1.45.59 2.13.13.68.4 1.41.58 1.62.18.21.43.84.55 1.4.11.57.38 1.24.59 1.5.2.27.38.58.38.68 0 .35 1.7 3.7 2 3.95.15.13.29.4.29.6 0 .2.17.5.4.7.21.17.56.64.76 1.04.2.4.44.71.52.71.09 0 .28.24.43.52.3.58 1.46 1.88 2.94 3.3l1.45 1.4c.28.28.6.5.71.5.11 0 .3.17.4.37.11.2.55.56.97.8.41.24.76.5.76.57 0 .07.38.29.86.47.47.18.85.4.85.5 0 .08.48.37 1.05.64.58.26 1.05.56 1.05.66 0 .1.37.27.81.38.45.12 1.03.37 1.3.56.26.19.94.44 1.5.56.57.12 1.3.38 1.62.58.32.19 1.05.4 1.62.48.56.07 1.5.3 2.1.5 3.77 1.3 21.03 1.42 22.63.15.11-.09 1.06-.34 2.1-.56a8.77 8.77 0 0 0 2.16-.65c.16-.14.68-.35 1.15-.47.79-.2 2.25-.83 3.43-1.46.26-.14.84-.44 1.29-.65.44-.22 1.02-.6 1.28-.86.25-.26.6-.47.76-.47.16 0 .48-.21.71-.48.23-.26.49-.47.58-.47.23 0 2.73-2.16 3.74-3.23 1.3-1.39 1.5-1.61 1.62-1.97.06-.18.24-.33.4-.33.15 0 .42-.3.6-.67.17-.37.39-.67.48-.67.1 0 .28-.28.43-.62.14-.34.44-.83.67-1.1.46-.51.68-.91 2-3.56.49-.96.88-1.86.88-2 0-.15.2-.47.42-.72.23-.24.47-.81.54-1.26.14-.95.05-1.03-1.3-1.03-.5 0-1.5-.18-2.23-.4-.74-.2-2.45-.5-3.81-.66a28.35 28.35 0 0 1-3.72-.64c-.68-.2-1.88-.42-2.67-.48-.79-.07-1.99-.25-2.67-.41-3.93-.93-4.85-.82-5.06.58a3.44 3.44 0 0 1-.46 1.3 5.4 5.4 0 0 0-.58 1.09c-.33.88-1.13 2.22-1.65 2.78-.23.25-.47.6-.54.79-.06.19-.5.64-.98 1-.47.37-1 .83-1.18 1.02-.18.2-.64.48-1.02.64-.39.15-.75.4-.8.53-.05.14-.55.36-1.1.49-.56.13-1.4.42-1.88.64-1.2.56-7.16.6-8.16.06a7.03 7.03 0 0 0-1.7-.54c-.6-.1-1.38-.4-1.75-.66a2.63 2.63 0 0 0-1.03-.46c-.19 0-.56-.21-.82-.48-.26-.26-.57-.47-.69-.47-.6 0-4.52-3.9-4.99-4.96a2.07 2.07 0 0 0-.52-.71 1.46 1.46 0 0 1-.44-.71c-.06-.26-.33-.8-.6-1.17a2.85 2.85 0 0 1-.46-.97c0-.14-.22-.77-.48-1.4-.26-.61-.6-1.83-.75-2.7l-.58-3.11c-.34-1.73-.27-2.52.3-3.17l.4-.45 27.7-.1c15.24-.05 27.77-.16 27.85-.24.38-.38-.63-14.83-1.11-15.96a9.91 9.91 0 0 1-.42-2.3 7.92 7.92 0 0 0-.47-2.28c-.19-.37-.48-1.36-.65-2.2-.17-.84-.48-1.89-.7-2.31a9 9 0 0 1-.55-1.58c-.1-.44-.3-.95-.46-1.12a3.8 3.8 0 0 1-.51-1.08c-.13-.42-.35-.9-.49-1.05-.13-.16-.4-.66-.58-1.12a5.1 5.1 0 0 0-.78-1.32c-.24-.26-.44-.58-.44-.71s-.26-.56-.57-.95c-.32-.4-.58-.82-.58-.95 0-.12-.21-.43-.47-.67-.26-.25-.48-.51-.48-.58 0-.11-.83-1.04-2.44-2.71a23.73 23.73 0 0 0-2.46-2.24c-.07 0-.35-.22-.62-.48-.75-.75-1.85-1.62-2.05-1.62-.1 0-.47-.26-.82-.57a2.55 2.55 0 0 0-.85-.57c-.11 0-.5-.2-.87-.45a6.71 6.71 0 0 0-1.36-.68c-.4-.13-.9-.39-1.15-.58-.25-.2-.84-.46-1.3-.58a6.9 6.9 0 0 1-1.43-.57c-.31-.18-.94-.4-1.39-.46a7.33 7.33 0 0 1-1.62-.49c-.44-.2-2.08-.54-3.66-.76-1.57-.22-3.1-.49-3.41-.59-.84-.27-8.95-.18-10.32.12m-69.16 1.81c-.34.2-.55 81.8-.21 83.47l.12.6h21.11v-.53c.05-26.77-.02-83.44-.1-83.57-.16-.25-20.49-.22-20.92.03m78.94 14.26c.25.13.98.32 1.63.43.64.1 1.35.35 1.56.54.2.19.7.44 1.07.56.38.13.9.4 1.15.6 2.72 2.26 3.32 2.77 3.38 2.9.03.1.31.43.61.74.3.3.56.67.56.82 0 .14.21.4.47.57.26.17.48.42.48.55 0 .14.3.71.66 1.28.37.58.67 1.25.67 1.5s.17.73.38 1.06c.22.36.5 1.4.67 2.57.16 1.08.39 2.13.5 2.35.47.86.32 3.74-.21 4.15-.78.6-33.31.58-33.85-.02-.71-.78-.25-6.36.69-8.43.2-.44.36-.98.36-1.2 0-.23.22-.72.48-1.1.26-.4.48-.82.48-.96 0-.13.22-.54.48-.9.66-.88 1.36-1.88 1.76-2.5.18-.3.49-.58.68-.64.19-.06.42-.32.52-.57.1-.26.3-.46.46-.46.16 0 .43-.22.6-.48.17-.26.4-.48.5-.48.1 0 .6-.28 1.1-.64.49-.35 1.1-.7 1.35-.78.25-.08.6-.27.77-.41.16-.15.93-.4 1.7-.56.77-.16 1.48-.35 1.6-.42.74-.46 5.93-.52 6.74-.07M4.5 105.12c-.58.42.74 7.84 1.6 8.99.09.1.3.66.49 1.24.18.58.84 2.08 1.45 3.33 2.08 4.25 3.95 6.87 7.83 10.98a51.17 51.17 0 0 0 7.4 6.03c1.61 1.01 5.49 3 6.41 3.3.4.13.83.3.93.39.66.52 9.06 2.85 10.26 2.85.25 0 1.48.2 2.73.42 2.66.5 15.24.63 17.13.18a40.9 40.9 0 0 1 3.02-.5c4-.54 12.46-3.02 13.67-4 .15-.13.54-.33.86-.43.31-.1 1-.46 1.51-.8a4.7 4.7 0 0 1 1.17-.59c.12 0 .33-.13.46-.29.13-.16.6-.46 1.03-.66 2.33-1.13 8.2-6.5 10.52-9.63l1.27-1.72c2.43-3.19 5.35-9.8 6.24-14.1.2-.95.45-2.06.56-2.48.33-1.27.27-2.34-.16-2.57-.44-.23-31.81-.28-32.18-.05-.13.09-.33.62-.45 1.2-1.29 6.16-4.92 11.85-8.2 12.86-.26.07-.59.25-.74.38-.16.13-.7.38-1.2.55-9.53 3.2-18.22-2.07-20.56-12.47-.5-2.24-.53-2.29-1.06-2.49-.8-.3-31.56-.23-32 .08m32 .4c.3.33.55.99.76 2.09.36 1.8 1.32 4.44 1.98 5.43.24.35.44.73.44.83 0 .3 2.27 2.85 3.31 3.72.54.44 1.1.92 1.26 1.06 2.4 2.1 8.73 3.2 12.4 2.15 6.1-1.75 10.35-6.73 11.72-13.75.14-.73.32-1.48.39-1.67.12-.32.98-.33 16.04-.28 17.46.05 16.38-.03 16.2 1.2-.46 2.89-1.86 7.97-2.68 9.7a7 7 0 0 0-.5 1.22c0 .1-.2.56-.47 1.02-.26.45-.47.95-.47 1.1 0 .15-.13.4-.28.57-.15.16-.5.73-.77 1.25-.28.53-.71 1.26-.96 1.62l-.9 1.3c-.42.62-1.14 1.56-2.2 2.9a70.08 70.08 0 0 1-6.37 6.16c-2.16 1.65-3.27 2.42-3.5 2.42-.13 0-.34.12-.46.28-.13.15-.68.5-1.22.76-.54.26-1.11.56-1.27.66-.47.31-3.1 1.48-3.86 1.72-.39.13-.75.3-.8.4-.06.08-.6.26-1.19.38s-1.45.39-1.91.58c-.47.2-1.63.53-2.6.73l-3.08.66c-6.79 1.52-20.97 1.48-26.02-.07-.37-.11-1.5-.38-2.52-.58a18.8 18.8 0 0 1-2.67-.73c-.45-.2-1.27-.46-1.82-.59a3.14 3.14 0 0 1-1.1-.4c-.06-.1-.6-.32-1.2-.49a5.85 5.85 0 0 1-1.37-.53c-.16-.13-.67-.4-1.14-.6-.48-.2-1.16-.55-1.53-.8a3.08 3.08 0 0 0-.84-.43c-.18 0-.45-.16-2.38-1.44l-1.28-.85c-3.04-2-9.02-8.12-10.46-10.7-.11-.19-.45-.71-.75-1.16-1.05-1.55-1.19-1.77-1.44-2.44-.15-.36-.37-.8-.5-.95-.29-.36-1.8-3.92-1.8-4.25 0-.13-.17-.58-.38-.99-.2-.4-.47-1.26-.59-1.9-.12-.63-.36-1.58-.55-2.1-.61-1.74-.78-3.91-.35-4.44.16-.19 3.46-.24 15.73-.24h15.52l.44.47"/>
      <path fill="#a8a8a8" d="M46.56 54.35c-1.28.08-2.61.24-2.95.35-.34.1-1.6.32-2.82.48-1.21.15-2.59.4-3.05.56-.47.15-1.5.43-2.28.61-.78.18-1.73.48-2.1.66-.36.18-1.07.42-1.57.54-.5.13-1.18.4-1.52.6-.34.21-.73.38-.87.38-.25 0-1.03.37-2.78 1.31l-1.43.76c-.61.32-4.14 2.67-4.68 3.12a46.93 46.93 0 0 0-8.36 8.54l-1 1.43c-.37.52-.86 1.3-1.08 1.72-.22.41-.5.84-.62.95-.12.1-.33.53-.47.95-.14.42-.36.9-.5 1.05a29.3 29.3 0 0 0-1.8 4.2c0 .1-.18.55-.38 1-.2.44-.5 1.36-.65 2.05-.15.68-.45 1.93-.68 2.78-.3 1.17-.36 1.66-.21 2.05l.19.5h15.53c17.55 0 16.36.11 16.8-1.5.42-1.5 1.44-4.22 1.81-4.79 1.47-2.27 1.95-2.9 2.96-3.92 1.07-1.08 3.36-2.75 3.78-2.75.1 0 .34-.14.52-.31.83-.75 5.74-1.72 7.6-1.5 1.53.17 4.6 1.01 5.16 1.41.26.2.69.41.95.5 2.41.76 6.54 5.95 7.43 9.34.14.52.32 1.04.4 1.14.07.1.2.49.27.86.08.36.28.85.45 1.09l.31.42H84.6l15.67.01.37-.47c.34-.44.35-.54.1-1.25-.14-.42-.34-1.3-.43-1.95-.1-.66-.44-2-.76-3-.32-.98-.59-1.89-.59-2 0-.11-.17-.54-.38-.95a48.15 48.15 0 0 0-3.5-7.04c-.22-.32-.5-.73-.6-.9-2.92-4.71-8.5-9.9-13.73-12.78a51.86 51.86 0 0 0-4.21-2.07c-.1 0-.6-.2-1.12-.46a51.39 51.39 0 0 0-10.5-2.87 25.7 25.7 0 0 1-2.56-.41c-2.5-.56-10.4-.78-15.79-.44M4.8 105.3c-.43.53-.26 2.7.35 4.43.19.53.43 1.48.55 2.11.12.64.39 1.5.6 1.9.2.41.37.86.37 1 0 .32 1.51 3.88 1.8 4.24.13.16.35.59.5.95.25.67.39.9 1.44 2.44.3.45.64.97.75 1.16 1.44 2.58 7.42 8.7 10.46 10.7l1.28.85c1.93 1.28 2.2 1.44 2.38 1.44.1 0 .48.2.84.44.37.24 1.05.6 1.52.8.48.2 1 .46 1.15.59.16.12.77.36 1.37.53.6.17 1.14.4 1.2.48.05.1.55.28 1.1.41.55.13 1.37.4 1.82.59.45.2 1.65.52 2.67.73 1.02.2 2.15.47 2.52.58 5.05 1.55 19.23 1.6 26.02.07l3.09-.66c.96-.2 2.13-.53 2.59-.73.46-.2 1.32-.46 1.91-.58.6-.12 1.13-.3 1.18-.39.06-.09.42-.26.81-.39.77-.24 3.39-1.4 3.86-1.72.16-.1.73-.4 1.27-.66.54-.27 1.09-.6 1.22-.76.12-.16.33-.28.46-.28.23 0 1.34-.77 3.5-2.42 1.29-.99 5.5-5.06 6.38-6.16a61.54 61.54 0 0 0 2.2-2.9l.89-1.3c.25-.36.68-1.1.96-1.62a8.7 8.7 0 0 1 .77-1.25c.15-.17.28-.42.28-.57 0-.15.21-.65.47-1.1.26-.46.48-.92.48-1.02a7 7 0 0 1 .49-1.21c.82-1.74 2.22-6.83 2.67-9.72.2-1.22 1.27-1.14-16.2-1.2-15.05-.04-15.9-.03-16.03.3-.07.18-.25.93-.4 1.66-1.36 7.02-5.61 12-11.72 13.75-3.66 1.05-10-.05-12.39-2.15-.15-.14-.72-.62-1.26-1.06-1.04-.87-3.31-3.42-3.31-3.72 0-.1-.2-.48-.44-.83-.66-1-1.62-3.64-1.98-5.43-.21-1.1-.45-1.76-.75-2.09l-.44-.47H20.53c-12.27 0-15.57.05-15.73.24m94.95 1.33c-.1.1-.3.13-.42.05-.17-.1-.17-.18.02-.3.33-.2.65 0 .4.25"/>
  </symbol>
	<symbol id="broom-logo" viewBox="-2 -2 28 28" fill="none" stroke="#333333" stroke-width="3" stroke-linecap="round" stroke-linejoin="round">
    <path d="m13 11 9-9"/>
    <path d="M14.6 12.6c.8.8.9 2.1.2 3L10 22l-8-8 6.4-4.8c.9-.7 2.2-.6 3 .2Z"/>
    <path d="m6.8 10.4 6.8 6.8"/>
    <path d="m5 17 1.4-1.4"/>
  </symbol>
	<symbol id="calendar-logo" viewBox="-2 -2 28 28" fill="none" stroke="#333333" stroke-width="3" stroke-linecap="round" stroke-linejoin="round">
	<path d="M8 2v4"/>
	<path d="M16 2v4"/>
	<rect width="18" height="18" x="3" y="4" rx="2"/>
	<path d="M3 10h18"/>
	<path d="M8 14h.01"/>
	<path d="M12 14h.01"/>
	<path d="M16 14h.01"/>
	<path d="M8 18h.01"/>
	<path d="M12 18h.01"/>
	<path d="M16 18h.01"/>
  </symbol>

	<symbol id="arrow-left-right-logo" viewBox="-2 -2 28 28" fill="none" stroke="#333333" stroke-width="3" stroke-linecap="round" stroke-linejoin="round">
	<path d="M8 3 4 7l4 4"/>
	<path d="M4 7h16"/>
	<path d="m16 21 4-4-4-4"/>
	<path d="M20 17H4"/>
</symbol>

	<symbol id="heart-logo" viewBox="-2 -2 28 28" fill="none" stroke="#333333" stroke-width="3" stroke-linecap="round" stroke-linejoin="round">
	<path d="M19 14c1.49-1.46 3-3.21 3-5.5A5.5 5.5 0 0 0 16.5 3c-1.76 0-3 .5-4.5 2-1.5-1.5-2.74-2-4.5-2A5.5 5.5 0 0 0 2 8.5c0 2.3 1.5 4.05 3 5.5l7 7Z"/>
	</symbol>
 	<symbol id="menu-logo" viewBox="2 1 21 21" fill="none" stroke="#333333" stroke-width="2.5" stroke-linecap="round" stroke-linejoin="round">
	<path d="M4 12h16"/><path d="M4 18h16"/><path d="M4 6h16"/>
	</symbol>
	<symbol id="chevron-down-logo" viewBox="2 1 21 21" fill="none" stroke="#333333" stroke-width="2.5" stroke-linecap="round" stroke-linejoin="round">
	<path d="m6 9 6 6 6-6"/>
	</symbol>
	<symbol id="chevron-up-logo" viewBox="2 1 21 21" fill="none" stroke="#333333" stroke-width="2.5" stroke-linecap="round" stroke-linejoin="round">
	<path d="m18 15-6-6-6 6"/>
	</symbol>
	<symbol id="zap-logo" viewBox="0 0 28 28" stroke="#333333" stroke-width="2" stroke-linecap="round" stroke-linejoin="round">
	<path d="M4 14a1 1 0 0 1-.78-1.63l9.9-10.2a.5.5 0 0 1 .86.46l-1.92 6.02A1 1 0 0 0 13 10h7a1 1 0 0 1 .78 1.63l-9.9 10.2a.5.5 0 0 1-.86-.46l1.92-6.02A1 1 0 0 0 11 14z"/>
	</symbol>
	
	<symbol id="x-logo"  viewBox="0 0 50 50">
	<path d="M 11 4 C 7.134 4 4 7.134 4 11 L 4 39 C 4 42.866 7.134 46 11 46 L 39 46 C 42.866 46 46 42.866 46 39 L 46 11 C 46 7.134 42.866 4 39 4 L 11 4 z M 13.085938 13 L 21.023438 13 L 26.660156 21.009766 L 33.5 13 L 36 13 L 27.789062 22.613281 L 37.914062 37 L 29.978516 37 L 23.4375 27.707031 L 15.5 37 L 13 37 L 22.308594 26.103516 L 13.085938 13 z M 16.914062 15 L 31.021484 35 L 34.085938 35 L 19.978516 15 L 16.914062 15 z"/>
	</symbol>
	<symbol id="youtube-logo"  viewBox="0 0 48 48">
	<path fill="#FF3D00" 		d="M43.2,33.9c-0.4,2.1-2.1,3.7-4.2,4c-3.3,0.5-8.8,1.1-15,1.1c-6.1,0-11.6-0.6-15-1.1c-2.1-0.3-3.8-1.9-4.2-4C4.4,31.6,4,28.2,4,24c0-4.2,0.4-7.6,0.8-9.9c0.4-2.1,2.1-3.7,4.2-4C12.3,9.6,17.8,9,24,9c6.2,0,11.6,0.6,15,1.1c2.1,0.3,3.8,1.9,4.2,4c0.4,2.3,0.9,5.7,0.9,9.9C44,28.2,43.6,31.6,43.2,33.9z"/>
	<path fill="#FFF" d="M20 31L20 17 32 24z"/>
	</symbol>
	
  <!-- === Símbolo: seta para cima (▲) === -->
  <symbol id="arrow-up" viewBox="0 -1 10 6" preserveAspectRatio="xMidYMid meet"
          fill="none"
          stroke="currentColor"
          stroke-width="1.5"
          stroke-linecap="round"
          stroke-linejoin="round"
          shape-rendering="geometricPrecision">
    <path d="M2,4 L5,0 L8,4 Z" fill="currentColor" />
  </symbol>

  <!-- === Símbolo: seta para baixo (▼) === -->
  <symbol id="arrow-down" viewBox="0 1 10 6" preserveAspectRatio="xMidYMid meet"
          fill="none"
          stroke="currentColor"
          stroke-width="1.5"
          stroke-linecap="round"
          stroke-linejoin="round"
          shape-rendering="geometricPrecision">
     <path d="M2,2 L5,6 L8,2 Z" fill="currentColor" />
  </symbol>




</svg>
