<!-- icons.svg (só uma vez, incluído no <body> ou via server-include) -->
<svg xmlns="http://www.w3.org/2000/svg" style="display:none">
  <symbol id="omie-logo" viewBox="0 0 400 190" fill="currentColor">
    <path d="M170.257 54.535 C 166.327 55.064,162.423 56.094,160.547 57.097 C 160.278 57.241,159.379 57.682,158.550 58.078 C 157.720 58.474,156.820 58.977,156.548 59.197 C 156.061 59.591,155.442 60.027,154.457 60.670 C 153.452 61.325,150.639 63.889,148.381 66.206 C 147.508 67.102,147.198 67.302,146.685 67.302 C 145.708 67.302,145.663 67.055,145.663 61.720 C 145.663 57.080,145.646 56.860,145.272 56.522 C 144.899 56.184,144.283 56.171,130.853 56.222 C 117.054 56.274,116.346 56.297,116.066 56.707 C 115.895 56.957,115.871 89.640,116.041 90.085 C 116.108 90.259,116.373 90.481,116.630 90.579 C 116.981 90.712,141.845 90.840,143.756 90.718 C 143.913 90.708,144.771 90.759,145.663 90.832 C 148.231 91.041,149.030 90.273,149.775 86.880 C 150.086 85.465,152.770 82.009,154.129 81.275 C 158.753 78.779,162.485 78.379,165.583 80.048 C 166.001 80.273,166.414 80.458,166.501 80.458 C 168.204 80.458,171.783 86.425,171.783 89.266 C 171.783 90.049,172.294 90.747,172.879 90.761 C 179.057 90.908,203.737 90.719,204.152 90.521 C 204.567 90.324,204.729 90.045,204.957 89.131 C 205.114 88.503,205.338 87.817,205.455 87.607 C 205.572 87.398,205.724 86.989,205.793 86.698 C 206.553 83.519,211.319 79.933,215.618 79.304 C 220.950 78.525,226.291 82.512,227.343 88.057 C 227.679 89.831,227.870 90.275,228.422 90.570 C 228.945 90.850,258.780 90.838,259.304 90.558 C 260.741 89.789,259.904 77.491,258.074 72.474 C 257.906 72.015,257.769 71.491,257.769 71.310 C 257.769 71.130,257.566 70.598,257.317 70.130 C 257.068 69.662,256.801 69.070,256.725 68.815 C 256.648 68.560,256.187 67.684,255.700 66.869 C 255.213 66.055,254.685 65.154,254.528 64.867 C 254.023 63.949,251.417 61.219,249.818 59.934 C 249.315 59.530,248.861 59.146,248.808 59.082 C 248.756 59.017,248.327 58.770,247.855 58.532 C 247.383 58.294,246.954 58.039,246.902 57.964 C 246.603 57.541,243.297 56.182,241.087 55.575 C 236.828 54.406,236.459 54.360,231.268 54.361 C 223.634 54.361,218.614 55.431,214.299 57.978 C 214.142 58.071,213.670 58.328,213.251 58.550 C 211.460 59.497,206.679 63.413,204.164 65.991 C 201.882 68.330,201.399 68.360,200.057 66.238 C 198.888 64.391,197.033 62.158,195.558 60.820 C 194.922 60.243,194.099 59.492,193.729 59.152 C 193.359 58.811,192.981 58.532,192.888 58.532 C 192.795 58.532,192.458 58.346,192.138 58.119 C 191.327 57.541,189.097 56.436,188.742 56.435 C 188.579 56.435,188.365 56.362,188.265 56.273 C 187.714 55.780,185.824 55.312,181.220 54.528 C 180.068 54.331,171.728 54.337,170.257 54.535 M116.662 105.369 C 115.915 105.569,115.909 105.718,115.963 123.298 C 116.005 136.965,116.064 140.354,116.264 140.553 C 116.690 140.978,147.127 140.911,147.654 140.484 C 148.262 139.992,148.331 106.851,147.727 105.863 L 147.347 105.243 132.158 105.265 C 123.804 105.277,116.831 105.324,116.662 105.369 M172.261 105.691 C 171.933 106.191,171.901 140.315,172.228 140.642 C 172.513 140.928,203.373 140.840,203.661 140.553 C 204.067 140.146,204.121 106.594,203.716 105.811 L 203.422 105.243 187.988 105.243 L 172.554 105.243 172.261 105.691 M228.228 105.749 C 227.662 106.469,227.691 139.879,228.259 140.447 C 228.695 140.883,259.279 140.986,259.713 140.553 C 259.966 140.301,260.211 107.250,259.968 106.257 C 259.705 105.187,260.593 105.243,243.947 105.243 L 228.626 105.243 228.228 105.749 M99.351 106.376 C 99.161 106.493,99.156 106.564,99.329 106.671 C 99.454 106.748,99.642 106.726,99.747 106.621 C 99.996 106.372,99.676 106.175,99.351 106.376 " stroke="none" fill="#91b766" fill-rule="evenodd"></path><path id="path1" d="M275.310 24.162 C 275.153 24.222,274.961 24.365,274.884 24.480 C 274.714 24.734,274.693 41.931,274.860 42.946 L 274.978 43.661 285.535 43.661 L 296.092 43.661 296.100 43.232 C 296.114 42.493,296.119 24.708,296.105 24.357 C 296.092 24.024,276.162 23.837,275.310 24.162 M45.597 54.152 C 44.408 54.246,42.606 54.490,41.594 54.695 C 40.581 54.900,39.280 55.128,38.704 55.201 C 38.127 55.275,37.523 55.404,37.361 55.489 C 37.200 55.573,36.256 55.861,35.264 56.128 C 33.369 56.637,30.377 57.677,30.037 57.944 C 29.928 58.030,29.496 58.211,29.078 58.346 C 28.322 58.590,23.823 60.955,23.642 61.204 C 23.589 61.276,23.332 61.446,23.070 61.583 C 22.807 61.720,22.378 61.994,22.116 62.192 C 21.854 62.391,21.125 62.936,20.496 63.404 C 13.651 68.496,8.147 76.331,5.702 84.461 C 4.336 89.007,4.121 90.455,4.734 91.010 C 5.093 91.335,34.833 91.518,36.399 91.205 C 37.103 91.064,37.270 90.800,37.738 89.078 C 39.377 83.045,44.115 77.881,48.713 77.115 C 49.133 77.045,49.899 76.868,50.416 76.721 C 56.793 74.909,64.966 80.176,67.214 87.547 C 67.783 89.413,68.274 90.648,68.581 90.988 C 68.899 91.338,99.237 91.498,100.477 91.155 C 101.233 90.946,101.380 89.970,100.896 88.354 C 100.679 87.629,100.442 86.649,100.371 86.177 C 100.299 85.705,100.085 84.890,99.894 84.366 C 99.704 83.842,99.450 83.027,99.329 82.555 C 98.766 80.345,95.837 74.575,94.151 72.355 C 91.648 69.056,89.495 66.663,87.602 65.077 C 87.081 64.640,86.354 64.031,85.987 63.723 C 85.620 63.415,84.976 62.940,84.557 62.666 C 84.137 62.392,83.432 61.912,82.990 61.598 C 81.917 60.837,77.750 58.610,76.869 58.327 C 76.483 58.203,76.074 58.027,75.960 57.937 C 74.883 57.088,68.522 55.469,61.773 54.326 C 60.304 54.078,48.212 53.948,45.597 54.152 M58.151 54.334 C 59.776 54.430,61.663 54.634,62.345 54.787 C 63.027 54.940,64.185 55.124,64.919 55.196 C 67.181 55.418,73.452 57.138,75.408 58.074 C 75.934 58.326,76.438 58.532,76.529 58.532 C 76.684 58.532,79.496 59.909,80.744 60.595 C 85.976 63.476,91.549 68.667,94.470 73.382 C 94.575 73.551,94.849 73.956,95.080 74.282 C 95.656 75.098,97.698 79.065,97.973 79.901 C 98.096 80.277,98.367 80.917,98.574 81.324 C 98.782 81.731,98.951 82.156,98.951 82.269 C 98.951 82.382,99.216 83.287,99.540 84.278 C 99.864 85.270,100.207 86.614,100.301 87.265 C 100.395 87.916,100.593 88.796,100.739 89.221 C 100.984 89.931,100.975 90.033,100.632 90.469 L 100.258 90.944 84.591 90.938 L 68.923 90.932 68.614 90.506 C 68.444 90.272,68.241 89.781,68.163 89.416 C 68.085 89.050,67.958 88.665,67.882 88.561 C 67.805 88.456,67.630 87.941,67.492 87.417 C 66.602 84.032,62.470 78.840,60.057 78.074 C 59.799 77.992,59.372 77.771,59.108 77.582 C 58.551 77.183,55.485 76.340,53.956 76.165 C 52.094 75.952,47.178 76.925,46.355 77.670 C 46.167 77.840,45.930 77.979,45.828 77.979 C 45.409 77.979,43.119 79.648,42.046 80.734 C 41.042 81.752,40.564 82.385,39.091 84.652 C 38.723 85.218,37.699 87.934,37.288 89.434 C 36.844 91.050,38.027 90.944,20.482 90.944 L 4.948 90.944 4.755 90.438 C 4.609 90.053,4.661 89.565,4.974 88.389 C 5.199 87.539,5.505 86.287,5.654 85.605 C 5.802 84.924,6.092 84.002,6.298 83.558 C 6.504 83.113,6.673 82.662,6.673 82.555 C 6.673 82.255,8.216 78.683,8.485 78.360 C 8.616 78.203,8.837 77.731,8.976 77.312 C 9.115 76.892,9.328 76.463,9.449 76.358 C 9.569 76.253,9.849 75.824,10.069 75.405 C 10.290 74.985,10.777 74.214,11.151 73.689 C 11.525 73.165,11.975 72.521,12.151 72.259 C 12.926 71.105,15.284 68.443,16.951 66.839 C 18.047 65.785,18.662 65.246,20.508 63.719 C 21.049 63.272,24.577 60.922,25.186 60.603 C 25.459 60.460,26.103 60.118,26.616 59.842 C 28.371 58.900,29.152 58.532,29.400 58.531 C 29.536 58.531,29.926 58.360,30.267 58.153 C 30.608 57.945,31.294 57.675,31.792 57.553 C 32.290 57.431,32.998 57.186,33.365 57.008 C 33.732 56.830,34.676 56.535,35.462 56.352 C 36.249 56.170,37.273 55.894,37.738 55.741 C 38.204 55.587,39.577 55.334,40.789 55.178 C 42.001 55.022,43.271 54.806,43.610 54.698 C 45.063 54.233,53.062 54.033,58.151 54.334 M344.233 54.829 C 343.603 54.967,342.147 55.219,340.995 55.389 C 339.844 55.559,338.805 55.778,338.687 55.877 C 338.568 55.975,337.820 56.222,337.023 56.426 C 336.227 56.629,335.378 56.922,335.137 57.077 C 334.897 57.231,334.314 57.457,333.842 57.580 C 333.370 57.703,332.812 57.955,332.602 58.141 C 332.393 58.327,331.943 58.572,331.602 58.686 C 331.262 58.800,330.704 59.102,330.363 59.358 C 330.022 59.613,329.528 59.887,329.266 59.967 C 329.004 60.047,328.677 60.271,328.540 60.466 C 328.403 60.661,328.180 60.820,328.044 60.820 C 327.908 60.820,327.535 61.056,327.214 61.344 C 326.009 62.428,324.905 63.298,324.736 63.298 C 324.640 63.298,324.463 63.513,324.344 63.775 C 324.224 64.037,323.994 64.252,323.832 64.252 C 323.670 64.252,323.441 64.465,323.323 64.725 C 323.204 64.985,322.943 65.250,322.743 65.313 C 322.543 65.377,322.289 65.626,322.179 65.868 C 322.069 66.109,321.774 66.400,321.523 66.514 C 321.273 66.629,321.068 66.837,321.068 66.978 C 321.068 67.118,320.875 67.406,320.639 67.616 C 320.184 68.022,319.047 69.535,318.621 70.301 C 318.481 70.553,318.245 70.805,318.096 70.862 C 317.948 70.919,317.827 71.115,317.827 71.298 C 317.827 71.481,317.617 71.922,317.361 72.279 C 317.105 72.635,316.716 73.310,316.496 73.778 C 316.276 74.246,315.985 74.760,315.850 74.922 C 315.715 75.083,315.502 75.575,315.376 76.016 C 315.250 76.457,315.024 76.941,314.874 77.091 C 314.725 77.241,314.501 77.781,314.377 78.291 C 314.254 78.801,313.995 79.519,313.803 79.886 C 313.611 80.253,313.326 81.198,313.169 81.986 C 313.012 82.775,312.757 83.676,312.601 83.988 C 312.444 84.301,312.219 85.363,312.099 86.348 C 311.979 87.333,311.759 88.534,311.609 89.017 C 310.902 91.294,310.777 106.278,311.448 108.165 C 311.604 108.603,311.863 109.933,312.023 111.121 C 312.184 112.309,312.469 113.682,312.658 114.171 C 312.847 114.661,313.113 115.620,313.249 116.301 C 313.385 116.983,313.646 117.712,313.829 117.922 C 314.012 118.132,314.259 118.763,314.376 119.325 C 314.494 119.887,314.761 120.563,314.969 120.828 C 315.177 121.093,315.348 121.397,315.348 121.503 C 315.348 121.847,317.046 125.201,317.346 125.450 C 317.505 125.582,317.636 125.852,317.636 126.050 C 317.636 126.248,317.814 126.559,318.033 126.742 C 318.251 126.924,318.596 127.395,318.799 127.788 C 319.002 128.182,319.238 128.503,319.323 128.503 C 319.408 128.503,319.600 128.738,319.749 129.024 C 320.046 129.596,321.212 130.902,322.688 132.315 C 323.213 132.817,323.868 133.452,324.144 133.726 C 324.420 133.999,324.739 134.223,324.852 134.223 C 324.965 134.223,325.147 134.389,325.256 134.592 C 325.364 134.795,325.796 135.154,326.216 135.390 C 326.635 135.626,326.978 135.881,326.978 135.958 C 326.978 136.035,327.364 136.246,327.836 136.426 C 328.308 136.606,328.694 136.829,328.694 136.921 C 328.694 137.013,329.166 137.304,329.743 137.568 C 330.319 137.832,330.791 138.127,330.791 138.225 C 330.791 138.323,331.156 138.497,331.602 138.613 C 332.047 138.728,332.629 138.977,332.895 139.167 C 333.161 139.357,333.841 139.612,334.406 139.733 C 334.972 139.854,335.698 140.112,336.020 140.306 C 336.343 140.499,337.070 140.716,337.637 140.788 C 338.204 140.859,339.147 141.083,339.734 141.285 C 343.511 142.589,360.767 142.710,362.365 141.443 C 362.481 141.351,363.425 141.099,364.462 140.882 C 365.499 140.666,366.477 140.374,366.634 140.233 C 366.792 140.093,367.307 139.879,367.779 139.758 C 368.567 139.556,370.032 138.933,371.211 138.298 C 371.473 138.157,372.052 137.864,372.498 137.648 C 372.944 137.432,373.519 137.045,373.776 136.788 C 374.033 136.531,374.377 136.320,374.540 136.320 C 374.703 136.320,375.022 136.106,375.250 135.844 C 375.478 135.582,375.740 135.367,375.831 135.367 C 376.060 135.367,378.558 133.209,379.566 132.141 C 380.876 130.752,381.062 130.525,381.187 130.172 C 381.251 129.988,381.431 129.838,381.587 129.838 C 381.742 129.838,382.012 129.538,382.186 129.171 C 382.360 128.804,382.578 128.503,382.669 128.503 C 382.761 128.503,382.952 128.224,383.095 127.884 C 383.238 127.543,383.542 127.050,383.772 126.787 C 384.225 126.269,384.450 125.869,385.776 123.225 C 386.259 122.262,386.654 121.356,386.654 121.212 C 386.654 121.067,386.841 120.748,387.070 120.502 C 387.299 120.257,387.542 119.687,387.610 119.236 C 387.755 118.285,387.657 118.208,386.301 118.208 C 385.809 118.208,384.808 118.033,384.076 117.819 C 383.344 117.606,381.631 117.306,380.268 117.154 C 378.905 117.001,377.232 116.711,376.550 116.509 C 375.868 116.307,374.666 116.089,373.880 116.025 C 373.093 115.961,371.892 115.777,371.211 115.617 C 367.277 114.694,366.359 114.800,366.149 116.198 C 366.078 116.677,365.873 117.260,365.694 117.495 C 365.516 117.730,365.255 118.222,365.114 118.589 C 364.777 119.466,363.975 120.812,363.456 121.372 C 363.228 121.617,362.988 121.971,362.921 122.158 C 362.855 122.345,362.415 122.798,361.945 123.165 C 361.474 123.532,360.943 123.990,360.764 124.182 C 360.585 124.374,360.123 124.659,359.738 124.816 C 359.353 124.973,358.995 125.213,358.943 125.350 C 358.890 125.487,358.393 125.707,357.838 125.840 C 357.283 125.974,356.440 126.263,355.965 126.483 C 354.751 127.044,348.801 127.087,347.803 126.542 C 347.459 126.354,346.694 126.111,346.101 126.002 C 345.508 125.892,344.719 125.595,344.346 125.342 C 343.973 125.088,343.512 124.881,343.322 124.881 C 343.132 124.881,342.762 124.666,342.499 124.404 C 342.237 124.142,341.929 123.928,341.814 123.928 C 341.217 123.928,337.287 120.025,336.822 118.970 C 336.707 118.708,336.471 118.389,336.297 118.260 C 336.124 118.131,335.929 117.812,335.863 117.550 C 335.797 117.288,335.530 116.759,335.269 116.375 C 335.008 115.991,334.795 115.557,334.795 115.411 C 334.795 115.265,334.581 114.638,334.320 114.017 C 334.058 113.396,333.719 112.176,333.565 111.305 C 333.411 110.435,333.150 109.037,332.986 108.198 C 332.647 106.469,332.723 105.683,333.290 105.029 L 333.683 104.576 361.392 104.480 C 376.632 104.428,389.164 104.321,389.242 104.244 C 389.623 103.863,388.612 89.410,388.126 88.275 C 387.969 87.908,387.780 86.878,387.708 85.987 C 387.632 85.060,387.430 84.079,387.236 83.696 C 387.050 83.327,386.758 82.337,386.587 81.496 C 386.417 80.656,386.107 79.615,385.899 79.185 C 385.692 78.754,385.441 78.043,385.342 77.605 C 385.244 77.167,385.038 76.664,384.884 76.488 C 384.731 76.312,384.497 75.825,384.366 75.405 C 384.235 74.986,384.017 74.514,383.881 74.357 C 383.746 74.199,383.486 73.696,383.304 73.238 C 383.122 72.780,382.771 72.189,382.525 71.923 C 382.279 71.658,382.078 71.337,382.078 71.209 C 382.078 71.081,381.821 70.653,381.506 70.257 C 381.192 69.862,380.934 69.436,380.934 69.311 C 380.934 69.187,380.720 68.883,380.458 68.637 C 380.195 68.391,379.981 68.129,379.981 68.056 C 379.981 67.948,379.146 67.019,377.545 65.347 C 376.804 64.573,375.193 63.108,375.083 63.108 C 375.006 63.108,374.725 62.890,374.459 62.625 C 373.711 61.879,372.610 61.010,372.411 61.010 C 372.313 61.010,371.944 60.753,371.592 60.439 C 371.240 60.124,370.858 59.867,370.744 59.867 C 370.630 59.867,370.238 59.665,369.873 59.418 C 369.508 59.172,368.892 58.867,368.506 58.740 C 368.119 58.614,367.601 58.352,367.355 58.158 C 367.109 57.964,366.524 57.704,366.056 57.580 C 365.588 57.455,364.948 57.200,364.633 57.014 C 364.318 56.827,363.692 56.618,363.240 56.550 C 362.789 56.482,362.060 56.263,361.620 56.062 C 361.177 55.861,359.542 55.518,357.960 55.296 C 356.387 55.075,354.851 54.812,354.547 54.711 C 353.715 54.436,345.604 54.528,344.233 54.829 M275.071 56.641 C 274.733 56.838,274.523 138.439,274.857 140.110 L 274.976 140.705 285.534 140.705 L 296.092 140.705 296.092 140.181 C 296.137 113.410,296.067 56.739,295.988 56.612 C 295.832 56.360,275.505 56.388,275.071 56.641 M354.014 70.899 C 354.256 71.032,354.985 71.225,355.635 71.330 C 356.284 71.435,356.988 71.676,357.197 71.866 C 357.407 72.057,357.891 72.312,358.272 72.434 C 358.653 72.556,359.168 72.824,359.416 73.029 C 362.143 75.289,362.736 75.799,362.795 75.939 C 362.833 76.029,363.111 76.356,363.414 76.666 C 363.718 76.976,363.966 77.345,363.966 77.487 C 363.966 77.629,364.180 77.885,364.442 78.057 C 364.704 78.229,364.919 78.478,364.919 78.612 C 364.919 78.745,365.217 79.323,365.581 79.894 C 365.946 80.466,366.246 81.139,366.249 81.388 C 366.251 81.638,366.423 82.116,366.630 82.451 C 366.854 82.813,367.125 83.852,367.300 85.018 C 367.462 86.095,367.689 87.153,367.805 87.369 C 368.267 88.233,368.117 91.113,367.588 91.521 C 366.813 92.119,334.277 92.102,333.735 91.503 C 333.029 90.723,333.486 85.135,334.425 83.066 C 334.624 82.627,334.789 82.088,334.791 81.866 C 334.793 81.645,335.010 81.148,335.272 80.762 C 335.534 80.375,335.748 79.948,335.748 79.813 C 335.748 79.677,335.966 79.273,336.232 78.915 C 336.895 78.025,337.589 77.034,337.988 76.406 C 338.172 76.117,338.477 75.831,338.667 75.770 C 338.856 75.709,339.090 75.451,339.186 75.198 C 339.283 74.945,339.490 74.738,339.648 74.738 C 339.805 74.738,340.075 74.523,340.246 74.261 C 340.418 73.999,340.646 73.785,340.752 73.785 C 340.859 73.785,341.350 73.495,341.843 73.140 C 342.336 72.786,342.947 72.432,343.200 72.355 C 343.454 72.277,343.798 72.094,343.967 71.946 C 344.135 71.799,344.901 71.547,345.669 71.387 C 346.436 71.227,347.154 71.041,347.263 70.974 C 348.010 70.512,353.202 70.454,354.014 70.899 M4.489 105.118 C 3.907 105.544,5.234 112.965,6.097 114.109 C 6.177 114.214,6.392 114.771,6.576 115.348 C 6.761 115.925,7.416 117.426,8.032 118.684 C 10.113 122.935,11.978 125.553,15.857 129.663 C 17.424 131.324,21.252 134.444,23.253 135.692 C 24.872 136.701,28.749 138.694,29.673 138.992 C 30.078 139.123,30.496 139.297,30.601 139.379 C 31.264 139.896,39.660 142.231,40.859 142.231 C 41.114 142.231,42.343 142.421,43.588 142.654 C 46.255 143.153,58.829 143.280,60.724 142.827 C 61.249 142.702,62.607 142.475,63.742 142.324 C 67.736 141.790,76.203 139.313,77.407 138.325 C 77.564 138.196,77.950 138.004,78.265 137.899 C 78.580 137.794,79.261 137.438,79.780 137.109 C 80.299 136.780,80.824 136.511,80.948 136.511 C 81.072 136.511,81.281 136.381,81.413 136.223 C 81.544 136.064,82.005 135.764,82.437 135.555 C 84.768 134.427,90.643 129.052,92.956 125.929 C 93.577 125.091,94.151 124.318,94.230 124.214 C 96.657 121.022,99.580 114.415,100.474 110.105 C 100.669 109.161,100.919 108.046,101.030 107.626 C 101.362 106.360,101.296 105.287,100.870 105.059 C 100.434 104.826,69.057 104.782,68.691 105.015 C 68.564 105.096,68.362 105.631,68.242 106.203 C 66.952 112.374,63.322 118.064,60.035 119.067 C 59.785 119.144,59.452 119.316,59.295 119.450 C 59.137 119.584,58.601 119.830,58.103 119.997 C 48.568 123.194,39.878 117.926,37.539 107.532 C 37.035 105.292,37.014 105.244,36.482 105.042 C 35.671 104.733,4.915 104.807,4.489 105.118 M36.489 105.524 C 36.788 105.846,37.026 106.506,37.243 107.610 C 37.596 109.405,38.560 112.047,39.224 113.039 C 39.462 113.394,39.657 113.768,39.657 113.869 C 39.657 114.172,41.927 116.719,42.972 117.589 C 43.508 118.035,44.075 118.513,44.233 118.651 C 46.628 120.755,52.959 121.853,56.625 120.802 C 62.728 119.052,66.977 114.067,68.346 107.054 C 68.489 106.320,68.666 105.568,68.738 105.383 C 68.864 105.064,69.721 105.049,84.776 105.097 C 102.244 105.153,101.162 105.073,100.971 106.292 C 100.518 109.185,99.118 114.271,98.297 116.006 C 98.028 116.575,97.807 117.123,97.807 117.223 C 97.807 117.324,97.594 117.780,97.333 118.236 C 97.072 118.692,96.858 119.188,96.856 119.337 C 96.855 119.486,96.732 119.743,96.583 119.909 C 96.434 120.074,96.086 120.639,95.810 121.163 C 95.533 121.687,95.100 122.417,94.847 122.784 C 94.594 123.151,94.192 123.735,93.952 124.082 C 93.527 124.700,92.811 125.644,91.757 126.978 C 90.889 128.077,86.669 132.154,85.378 133.141 C 83.219 134.791,82.109 135.558,81.876 135.558 C 81.751 135.558,81.543 135.684,81.415 135.838 C 81.287 135.993,80.740 136.334,80.200 136.596 C 79.660 136.858,79.090 137.157,78.932 137.260 C 78.457 137.572,75.835 138.742,75.074 138.983 C 74.682 139.107,74.316 139.282,74.261 139.372 C 74.205 139.462,73.675 139.636,73.083 139.759 C 72.492 139.882,71.630 140.145,71.167 140.343 C 70.705 140.541,69.539 140.867,68.576 141.068 C 67.613 141.270,66.225 141.568,65.491 141.733 C 58.700 143.252,44.517 143.211,39.466 141.659 C 39.099 141.546,37.966 141.284,36.948 141.076 C 35.929 140.868,34.728 140.541,34.278 140.350 C 33.829 140.158,33.010 139.893,32.459 139.762 C 31.908 139.631,31.410 139.447,31.353 139.354 C 31.295 139.261,30.760 139.045,30.162 138.874 C 29.564 138.704,28.947 138.461,28.789 138.336 C 28.632 138.210,28.117 137.945,27.645 137.747 C 27.173 137.548,26.489 137.189,26.124 136.948 C 25.758 136.708,25.377 136.511,25.276 136.511 C 25.101 136.511,24.828 136.345,22.897 135.066 C 22.435 134.760,21.861 134.380,21.623 134.223 C 18.584 132.221,12.597 126.100,11.157 123.523 C 11.050 123.332,10.713 122.809,10.409 122.360 C 9.357 120.811,9.225 120.589,8.967 119.924 C 8.824 119.557,8.604 119.128,8.477 118.970 C 8.182 118.605,6.673 115.051,6.673 114.723 C 6.673 114.587,6.503 114.141,6.294 113.733 C 6.086 113.324,5.820 112.470,5.703 111.833 C 5.585 111.197,5.338 110.248,5.152 109.724 C 4.539 107.988,4.368 105.818,4.804 105.293 C 4.962 105.103,8.263 105.052,20.528 105.052 L 36.053 105.052 36.489 105.524 " stroke="none" fill="#bcbcbc" fill-rule="evenodd"></path><path id="path2" d="M0.000 95.329 L 0.000 190.658 200.000 190.658 L 400.000 190.658 400.000 95.329 L 400.000 0.000 200.000 0.000 L 0.000 0.000 0.000 95.329 M296.557 23.684 C 296.817 24.054,296.854 25.343,296.854 33.870 L 296.854 43.633 296.412 43.980 C 295.710 44.532,275.180 44.517,274.568 43.965 C 274.024 43.474,273.925 24.451,274.463 23.684 L 274.759 23.260 285.510 23.260 L 296.261 23.260 296.557 23.684 M60.342 53.862 C 62.333 54.018,64.392 54.270,64.917 54.422 C 65.443 54.573,66.715 54.832,67.746 54.997 C 68.776 55.161,69.849 55.413,70.129 55.557 C 70.409 55.700,71.021 55.881,71.487 55.959 C 71.954 56.036,72.726 56.270,73.203 56.477 C 73.680 56.685,74.482 56.979,74.985 57.131 C 75.488 57.283,76.294 57.618,76.777 57.875 C 77.260 58.131,77.810 58.341,78.000 58.341 C 78.190 58.341,78.499 58.506,78.687 58.707 C 78.874 58.908,79.257 59.130,79.537 59.201 C 79.817 59.271,80.478 59.600,81.006 59.931 C 81.534 60.263,82.405 60.791,82.943 61.106 C 83.481 61.420,84.030 61.779,84.164 61.902 C 84.297 62.026,84.667 62.285,84.986 62.479 C 85.505 62.794,86.060 63.252,88.413 65.300 C 89.775 66.485,91.567 68.421,93.443 70.734 C 94.013 71.436,94.692 72.461,95.054 73.165 C 95.229 73.506,95.441 73.785,95.524 73.785 C 95.608 73.785,95.860 74.164,96.084 74.627 C 96.308 75.090,96.608 75.566,96.750 75.684 C 96.891 75.801,97.064 76.130,97.133 76.414 C 97.202 76.698,97.468 77.250,97.724 77.641 C 97.979 78.032,98.189 78.447,98.189 78.563 C 98.189 78.679,98.439 79.303,98.744 79.950 C 99.418 81.375,100.006 83.117,100.462 85.044 C 100.649 85.836,100.952 86.933,101.134 87.483 C 101.317 88.033,101.480 89.033,101.496 89.705 C 101.547 91.810,103.288 91.615,84.696 91.583 L 68.549 91.556 68.035 90.940 C 67.694 90.531,67.413 89.834,67.201 88.870 C 67.025 88.071,66.727 87.116,66.539 86.749 C 66.350 86.382,66.086 85.782,65.951 85.415 C 65.817 85.048,65.508 84.505,65.265 84.208 C 65.022 83.912,64.824 83.552,64.824 83.408 C 64.824 82.711,61.008 79.238,59.485 78.551 C 59.013 78.338,58.327 78.002,57.960 77.806 C 56.218 76.872,48.897 76.844,47.786 77.767 C 47.649 77.881,47.159 78.107,46.698 78.270 C 43.614 79.358,39.654 83.889,38.703 87.417 C 38.562 87.941,38.342 88.541,38.215 88.751 C 38.088 88.961,37.879 89.585,37.752 90.137 C 37.616 90.725,37.379 91.218,37.181 91.324 C 36.646 91.610,5.292 91.764,4.676 91.483 C 3.856 91.109,3.914 88.129,4.784 85.987 C 4.975 85.515,5.269 84.582,5.437 83.913 C 5.605 83.244,5.857 82.515,5.998 82.292 C 6.138 82.070,6.392 81.394,6.563 80.791 C 6.734 80.188,6.944 79.695,7.029 79.695 C 7.115 79.695,7.289 79.347,7.416 78.922 C 7.544 78.497,7.900 77.751,8.209 77.264 C 8.518 76.777,8.770 76.295,8.770 76.193 C 8.770 76.091,8.897 75.867,9.053 75.695 C 9.208 75.523,9.530 75.032,9.768 74.603 C 10.333 73.583,11.710 71.600,12.519 70.639 C 14.289 68.538,14.216 68.618,15.492 67.365 C 15.937 66.928,16.443 66.413,16.617 66.221 C 16.790 66.029,17.219 65.626,17.570 65.324 C 17.921 65.022,18.594 64.439,19.066 64.027 C 19.538 63.615,20.385 62.961,20.948 62.573 C 21.511 62.186,22.158 61.740,22.385 61.582 C 22.611 61.425,23.080 61.125,23.425 60.915 C 23.770 60.705,24.494 60.255,25.032 59.914 C 25.571 59.573,26.105 59.295,26.220 59.295 C 26.334 59.295,26.712 59.085,27.060 58.828 C 27.408 58.571,27.942 58.306,28.246 58.240 C 28.551 58.173,29.291 57.869,29.891 57.565 C 30.491 57.260,31.078 57.010,31.196 57.009 C 31.315 57.008,31.872 56.803,32.436 56.554 C 32.999 56.305,33.847 56.038,34.318 55.960 C 34.790 55.882,35.425 55.690,35.729 55.535 C 36.033 55.379,37.062 55.129,38.017 54.978 C 38.971 54.828,40.151 54.576,40.637 54.417 C 42.941 53.669,53.941 53.359,60.342 53.862 M182.314 53.864 C 184.947 54.174,187.783 54.901,189.113 55.608 C 189.575 55.853,190.070 56.053,190.213 56.053 C 190.357 56.053,190.814 56.268,191.230 56.530 C 191.645 56.792,192.054 57.007,192.139 57.007 C 192.223 57.007,192.590 57.261,192.953 57.571 C 193.316 57.881,193.715 58.139,193.840 58.143 C 193.966 58.147,194.180 58.301,194.317 58.486 C 194.454 58.670,195.024 59.199,195.585 59.662 C 196.582 60.486,199.802 64.077,199.817 64.383 C 199.821 64.468,200.079 64.835,200.389 65.198 C 200.699 65.561,200.953 65.965,200.953 66.097 C 200.953 66.719,202.386 66.942,202.574 66.349 C 202.640 66.139,202.758 65.968,202.836 65.968 C 202.913 65.968,203.765 65.217,204.730 64.299 C 205.694 63.382,206.752 62.417,207.079 62.154 C 207.407 61.892,207.863 61.506,208.092 61.296 C 209.206 60.280,210.746 59.104,210.964 59.104 C 211.098 59.104,211.258 58.974,211.318 58.816 C 211.379 58.658,211.667 58.427,211.958 58.303 C 212.250 58.179,212.617 57.973,212.774 57.846 C 213.496 57.263,217.947 55.203,218.903 55.009 C 219.255 54.938,220.229 54.675,221.068 54.425 C 224.961 53.265,237.502 53.253,240.240 54.408 C 240.614 54.565,241.501 54.829,242.212 54.993 C 242.923 55.158,243.687 55.421,243.911 55.578 C 244.135 55.735,244.458 55.863,244.630 55.863 C 245.043 55.863,247.839 57.306,248.343 57.780 C 248.560 57.984,248.818 58.151,248.916 58.152 C 249.913 58.163,254.757 63.278,255.933 65.562 C 256.129 65.942,256.351 66.296,256.426 66.349 C 256.638 66.497,258.341 70.014,258.341 70.304 C 258.341 70.446,258.475 70.821,258.639 71.138 C 258.803 71.455,259.061 72.373,259.213 73.178 C 259.365 73.984,259.616 74.962,259.770 75.353 C 259.924 75.744,260.183 77.460,260.345 79.166 C 260.507 80.873,260.723 82.998,260.824 83.889 C 261.105 86.368,261.060 89.825,260.737 90.598 C 260.258 91.745,260.842 91.706,244.027 91.706 C 225.858 91.706,227.123 91.867,226.782 89.514 C 226.444 87.174,225.362 84.809,223.838 83.074 C 219.721 78.388,209.726 79.998,207.315 85.735 C 207.175 86.069,206.976 86.394,206.872 86.458 C 206.769 86.522,206.505 87.193,206.285 87.949 C 205.669 90.068,205.327 90.895,204.915 91.268 C 204.383 91.749,173.012 91.907,171.881 91.434 C 171.031 91.079,170.802 90.530,170.634 88.450 C 170.535 87.215,170.384 86.609,170.018 85.972 C 169.752 85.508,169.470 84.914,169.392 84.652 C 169.314 84.390,169.090 84.063,168.895 83.926 C 168.701 83.789,168.541 83.563,168.541 83.424 C 168.541 83.139,167.283 81.946,166.604 81.589 C 166.359 81.460,166.104 81.271,166.039 81.171 C 165.866 80.907,162.116 79.886,161.318 79.886 C 160.435 79.886,156.707 80.813,156.339 81.124 C 156.182 81.257,155.568 81.593,154.975 81.871 C 153.898 82.374,152.795 83.432,152.050 84.678 C 151.840 85.028,151.433 85.702,151.145 86.175 C 150.414 87.379,150.231 87.845,150.043 88.981 C 149.843 90.199,149.650 90.573,148.893 91.209 L 148.302 91.706 132.289 91.706 C 121.607 91.706,116.153 91.641,115.907 91.509 C 114.966 91.005,114.973 91.137,114.969 73.380 C 114.964 55.383,114.924 56.083,115.993 55.383 C 116.722 54.906,145.158 55.047,145.871 55.532 C 146.683 56.083,146.749 56.496,146.778 61.191 C 146.793 63.753,146.883 65.739,146.988 65.844 C 147.183 66.039,147.464 65.809,150.238 63.180 C 152.569 60.972,153.404 60.248,153.622 60.248 C 153.728 60.248,153.931 60.107,154.073 59.936 C 154.609 59.290,156.522 58.120,159.199 56.801 C 162.011 55.415,162.726 55.100,163.057 55.100 C 163.215 55.100,164.018 54.881,164.840 54.612 C 167.827 53.637,177.036 53.243,182.314 53.864 M357.865 54.416 C 358.546 54.580,359.747 54.844,360.534 55.002 C 361.320 55.161,362.264 55.411,362.631 55.558 C 362.998 55.706,363.899 56.017,364.633 56.251 C 366.789 56.937,371.306 59.250,373.057 60.565 C 375.203 62.177,377.283 64.008,378.545 65.396 C 379.165 66.077,379.726 66.678,379.793 66.730 C 380.079 66.956,382.245 69.930,382.531 70.490 C 382.704 70.828,383.063 71.425,383.328 71.817 C 383.916 72.682,385.429 75.812,385.894 77.121 C 386.080 77.645,386.369 78.332,386.537 78.646 C 386.705 78.961,386.843 79.408,386.843 79.640 C 386.844 79.872,387.021 80.510,387.237 81.056 C 388.230 83.576,389.648 91.616,389.906 96.187 C 390.200 101.402,390.130 104.436,389.704 104.862 C 389.327 105.240,389.069 105.243,361.882 105.243 L 334.441 105.243 334.068 105.718 C 333.579 106.339,333.986 111.610,334.583 112.381 C 334.669 112.492,334.845 113.012,334.973 113.537 C 335.990 117.708,340.283 122.764,344.285 124.505 C 344.780 124.720,345.427 125.030,345.723 125.193 C 347.071 125.937,352.989 126.265,355.588 125.739 C 357.719 125.309,359.987 124.083,361.587 122.498 C 362.529 121.565,363.958 119.527,364.462 118.398 C 364.626 118.031,364.967 117.286,365.221 116.742 C 365.474 116.198,365.682 115.659,365.682 115.544 C 365.682 114.037,367.229 114.016,374.738 115.422 C 375.577 115.579,376.949 115.803,377.788 115.920 C 378.627 116.037,379.571 116.210,379.886 116.305 C 380.200 116.400,381.401 116.608,382.555 116.768 C 388.177 117.546,388.821 117.821,388.388 119.261 C 388.142 120.077,387.433 121.607,387.247 121.722 C 387.159 121.776,386.979 122.207,386.847 122.680 C 386.715 123.152,386.493 123.633,386.354 123.749 C 386.215 123.864,385.999 124.273,385.873 124.658 C 385.747 125.043,385.481 125.572,385.283 125.834 C 385.084 126.096,384.565 126.868,384.129 127.550 C 381.620 131.477,377.806 135.192,373.620 137.785 C 371.558 139.064,367.375 140.935,365.829 141.272 C 365.333 141.380,364.604 141.594,364.208 141.749 C 363.531 142.013,362.643 142.187,358.246 142.913 C 355.773 143.322,344.990 143.204,343.375 142.751 C 342.798 142.589,341.811 142.400,341.182 142.331 C 339.157 142.109,332.654 140.096,331.649 139.380 C 331.544 139.305,331.158 139.127,330.791 138.983 C 330.424 138.840,329.652 138.428,329.075 138.068 C 328.162 137.499,327.513 137.070,325.565 135.748 C 323.364 134.255,320.104 130.909,318.398 128.393 C 316.907 126.192,316.167 125.001,315.688 124.027 C 315.378 123.396,314.927 122.493,314.687 122.021 C 314.448 121.549,314.145 120.820,314.014 120.400 C 313.883 119.981,313.626 119.380,313.442 119.066 C 313.257 118.751,313.004 118.022,312.878 117.445 C 312.752 116.868,312.492 116.010,312.300 115.539 C 312.108 115.067,311.889 114.252,311.814 113.727 C 311.738 113.203,311.610 112.645,311.529 112.487 C 309.952 109.430,309.842 91.480,311.367 86.082 C 311.486 85.663,311.736 84.633,311.922 83.794 C 312.582 80.830,313.654 77.771,314.903 75.282 C 315.148 74.795,315.348 74.357,315.348 74.308 C 315.348 74.188,317.640 70.386,318.113 69.723 C 321.263 65.302,327.119 60.000,330.601 58.416 C 330.968 58.249,331.397 58.007,331.554 57.877 C 332.292 57.269,336.707 55.595,338.894 55.093 C 339.733 54.900,340.741 54.648,341.135 54.531 C 343.265 53.900,355.382 53.817,357.865 54.416 M296.413 56.087 L 296.854 56.501 296.854 98.541 C 296.854 137.391,296.830 140.607,296.539 140.929 C 296.087 141.428,274.963 141.475,274.465 140.978 C 274.195 140.707,274.166 136.595,274.166 98.564 L 274.166 56.450 274.583 56.061 C 274.993 55.679,275.197 55.672,285.486 55.672 L 295.972 55.672 296.413 56.087 M347.569 71.629 C 346.856 71.706,346.677 71.762,344.614 72.549 C 342.327 73.422,340.064 75.150,337.989 77.609 C 337.596 78.075,337.275 78.533,337.274 78.628 C 337.274 78.723,337.059 79.082,336.797 79.426 C 336.535 79.770,336.320 80.110,336.320 80.183 C 336.320 80.256,336.072 80.803,335.769 81.400 C 335.466 81.996,335.116 82.993,334.990 83.616 C 334.865 84.238,334.634 85.133,334.478 85.605 C 334.046 86.908,333.918 90.366,334.284 90.848 C 334.570 91.224,334.797 91.230,350.649 91.230 L 366.725 91.230 366.988 90.681 C 367.367 89.891,366.976 85.912,366.341 84.093 C 366.083 83.356,365.872 82.643,365.872 82.510 C 365.872 82.287,364.707 79.686,364.389 79.199 C 360.450 73.165,355.213 70.808,347.569 71.629 M37.138 104.921 C 37.409 105.166,37.584 105.710,37.745 106.809 C 37.869 107.657,38.081 108.532,38.216 108.752 C 38.351 108.972,38.612 109.709,38.796 110.390 C 38.980 111.071,39.292 111.833,39.489 112.084 C 39.686 112.335,39.848 112.635,39.848 112.752 C 39.849 113.379,43.501 117.636,44.038 117.636 C 44.116 117.636,44.556 117.935,45.016 118.301 C 45.476 118.667,45.940 118.968,46.045 118.969 C 46.151 118.970,46.628 119.178,47.105 119.432 C 47.582 119.686,48.568 119.985,49.296 120.096 C 50.024 120.207,51.049 120.388,51.573 120.498 C 52.236 120.636,52.903 120.636,53.765 120.497 C 56.845 120.001,58.020 119.739,58.312 119.484 C 58.486 119.333,58.951 119.105,59.347 118.978 C 59.743 118.851,60.301 118.558,60.586 118.326 C 60.872 118.095,61.353 117.750,61.655 117.559 C 62.493 117.031,64.703 114.554,65.030 113.775 C 65.152 113.487,65.320 113.251,65.403 113.251 C 65.487 113.251,65.702 112.800,65.881 112.250 C 66.061 111.699,66.314 111.120,66.444 110.963 C 66.574 110.806,66.904 109.819,67.176 108.770 C 68.055 105.387,68.186 105.003,68.546 104.739 C 69.214 104.251,100.887 104.367,101.333 104.860 C 101.764 105.336,101.619 107.722,101.058 109.406 C 100.860 110.000,100.603 111.064,100.487 111.771 C 100.371 112.478,100.113 113.336,99.913 113.678 C 99.714 114.020,99.493 114.643,99.421 115.062 C 99.349 115.481,99.097 116.168,98.860 116.587 C 98.624 117.007,98.324 117.693,98.193 118.112 C 98.063 118.532,97.849 118.961,97.719 119.067 C 97.588 119.172,97.418 119.472,97.339 119.734 C 97.261 119.996,97.001 120.510,96.761 120.877 C 96.521 121.244,96.208 121.765,96.065 122.036 C 95.662 122.799,94.616 124.371,94.289 124.706 C 94.127 124.872,93.994 125.102,93.994 125.217 C 93.994 125.331,93.801 125.582,93.565 125.773 C 93.329 125.964,93.010 126.365,92.855 126.665 C 92.462 127.425,88.110 131.803,86.273 133.285 C 84.266 134.904,83.118 135.685,80.839 136.980 C 80.367 137.248,79.852 137.547,79.695 137.643 C 79.538 137.740,78.723 138.132,77.884 138.514 C 77.045 138.897,76.015 139.367,75.596 139.558 C 74.365 140.119,73.788 140.324,73.439 140.324 C 73.259 140.324,72.804 140.489,72.429 140.690 C 72.053 140.891,71.197 141.156,70.525 141.279 C 69.854 141.401,68.918 141.655,68.446 141.843 C 67.974 142.031,66.730 142.287,65.682 142.412 C 64.633 142.537,63.298 142.760,62.714 142.908 C 59.433 143.738,45.499 143.801,42.993 142.998 C 42.679 142.897,41.282 142.641,39.889 142.430 C 38.496 142.219,37.191 141.958,36.989 141.850 C 36.787 141.742,35.953 141.518,35.136 141.352 C 34.319 141.187,33.480 140.943,33.270 140.810 C 33.060 140.678,32.374 140.420,31.745 140.239 C 31.115 140.057,30.300 139.754,29.933 139.564 C 29.566 139.375,28.858 139.075,28.360 138.898 C 27.862 138.721,27.455 138.507,27.455 138.422 C 27.455 138.338,27.219 138.210,26.930 138.139 C 26.642 138.068,26.020 137.772,25.548 137.482 C 25.076 137.192,24.068 136.587,23.308 136.139 C 22.548 135.690,21.926 135.263,21.926 135.190 C 21.926 135.116,21.623 134.912,21.252 134.735 C 20.882 134.559,20.530 134.285,20.469 134.128 C 20.409 133.971,20.267 133.842,20.154 133.842 C 19.696 133.842,14.299 128.939,14.299 128.523 C 14.299 128.454,14.063 128.178,13.775 127.909 C 13.487 127.640,12.908 126.972,12.488 126.425 C 12.069 125.878,11.554 125.242,11.344 125.013 C 11.135 124.783,10.834 124.366,10.677 124.087 C 10.520 123.807,10.074 123.105,9.687 122.527 C 9.299 121.948,8.810 121.097,8.600 120.635 C 8.389 120.173,8.095 119.694,7.945 119.570 C 7.796 119.446,7.566 118.960,7.435 118.490 C 7.303 118.020,7.123 117.636,7.035 117.636 C 6.947 117.636,6.738 117.143,6.572 116.540 C 6.405 115.937,6.113 115.143,5.923 114.776 C 5.732 114.409,5.467 113.637,5.333 113.060 C 5.199 112.483,4.942 111.664,4.761 111.239 C 4.406 110.408,3.718 105.574,3.891 105.125 C 4.117 104.536,5.109 104.502,20.809 104.539 C 35.897 104.574,36.778 104.594,37.138 104.921 M148.480 104.777 L 148.904 105.074 148.904 122.882 C 148.904 143.963,149.389 141.369,145.409 141.559 C 140.514 141.793,116.264 141.597,115.779 141.320 C 115.072 140.916,115.062 140.653,115.062 122.624 L 115.062 105.210 115.512 104.845 C 116.144 104.333,147.753 104.268,148.480 104.777 M204.456 104.876 L 204.959 105.272 204.910 123.016 L 204.862 140.760 204.324 141.162 C 203.772 141.573,176.507 141.917,172.957 141.557 C 170.810 141.339,171.019 143.347,171.026 123.022 C 171.032 104.712,171.024 104.917,171.783 104.622 C 172.754 104.244,203.961 104.487,204.456 104.876 M260.465 104.845 L 260.915 105.209 260.967 122.398 C 261.022 140.634,261.013 140.817,260.124 141.292 C 259.268 141.750,228.301 141.692,227.598 141.231 C 226.850 140.741,226.862 141.084,226.922 122.433 L 226.978 105.209 227.428 104.845 C 228.132 104.275,259.761 104.275,260.465 104.845 " stroke="none" fill="#fbfbfb" fill-rule="evenodd"></path><path id="path3" d="M46.565 54.352 C 45.279 54.434,43.949 54.589,43.610 54.698 C 43.271 54.806,42.001 55.022,40.789 55.178 C 39.577 55.334,38.204 55.587,37.738 55.741 C 37.273 55.894,36.249 56.170,35.462 56.352 C 34.676 56.535,33.732 56.830,33.365 57.008 C 32.998 57.186,32.290 57.431,31.792 57.553 C 31.294 57.675,30.608 57.945,30.267 58.153 C 29.926 58.360,29.536 58.531,29.400 58.531 C 29.152 58.532,28.371 58.900,26.616 59.842 C 26.103 60.118,25.459 60.460,25.186 60.603 C 24.577 60.922,21.049 63.272,20.508 63.719 C 18.662 65.246,18.047 65.785,16.951 66.839 C 15.284 68.443,12.926 71.105,12.151 72.259 C 11.975 72.521,11.525 73.165,11.151 73.689 C 10.777 74.214,10.290 74.985,10.069 75.405 C 9.849 75.824,9.569 76.253,9.449 76.358 C 9.328 76.463,9.115 76.892,8.976 77.312 C 8.837 77.731,8.616 78.203,8.485 78.360 C 8.216 78.683,6.673 82.255,6.673 82.555 C 6.673 82.662,6.504 83.113,6.298 83.558 C 6.092 84.002,5.802 84.924,5.654 85.605 C 5.505 86.287,5.199 87.539,4.974 88.389 C 4.661 89.565,4.609 90.053,4.755 90.438 L 4.948 90.944 20.482 90.944 C 38.027 90.944,36.844 91.050,37.288 89.434 C 37.699 87.934,38.723 85.218,39.091 84.652 C 40.564 82.385,41.042 81.752,42.046 80.734 C 43.119 79.648,45.409 77.979,45.828 77.979 C 45.930 77.979,46.167 77.840,46.355 77.670 C 47.178 76.925,52.094 75.952,53.956 76.165 C 55.485 76.340,58.551 77.183,59.108 77.582 C 59.372 77.771,59.799 77.992,60.057 78.074 C 62.470 78.840,66.602 84.032,67.492 87.417 C 67.630 87.941,67.805 88.456,67.882 88.561 C 67.958 88.665,68.085 89.050,68.163 89.416 C 68.241 89.781,68.444 90.272,68.614 90.506 L 68.923 90.932 84.591 90.938 L 100.258 90.944 100.632 90.469 C 100.975 90.033,100.984 89.931,100.739 89.221 C 100.593 88.796,100.395 87.916,100.301 87.265 C 100.207 86.614,99.864 85.270,99.540 84.278 C 99.216 83.287,98.951 82.382,98.951 82.269 C 98.951 82.156,98.782 81.731,98.574 81.324 C 98.367 80.917,98.096 80.277,97.973 79.901 C 97.698 79.065,95.656 75.098,95.080 74.282 C 94.849 73.956,94.575 73.551,94.470 73.382 C 91.549 68.667,85.976 63.476,80.744 60.595 C 79.496 59.909,76.684 58.532,76.529 58.532 C 76.438 58.532,75.934 58.326,75.408 58.074 C 73.452 57.138,67.181 55.418,64.919 55.196 C 64.185 55.124,63.027 54.940,62.345 54.787 C 59.854 54.227,51.947 54.009,46.565 54.352 M4.804 105.293 C 4.368 105.818,4.539 107.988,5.152 109.724 C 5.338 110.248,5.585 111.197,5.703 111.833 C 5.820 112.470,6.086 113.324,6.294 113.733 C 6.503 114.141,6.673 114.587,6.673 114.723 C 6.673 115.051,8.182 118.605,8.477 118.970 C 8.604 119.128,8.824 119.557,8.967 119.924 C 9.225 120.589,9.357 120.811,10.409 122.360 C 10.713 122.809,11.050 123.332,11.157 123.523 C 12.597 126.100,18.584 132.221,21.623 134.223 C 21.861 134.380,22.435 134.760,22.897 135.066 C 24.828 136.345,25.101 136.511,25.276 136.511 C 25.377 136.511,25.758 136.708,26.124 136.948 C 26.489 137.189,27.173 137.548,27.645 137.747 C 28.117 137.945,28.632 138.210,28.789 138.336 C 28.947 138.461,29.564 138.704,30.162 138.874 C 30.760 139.045,31.295 139.261,31.353 139.354 C 31.410 139.447,31.908 139.631,32.459 139.762 C 33.010 139.893,33.829 140.158,34.278 140.350 C 34.728 140.541,35.929 140.868,36.948 141.076 C 37.966 141.284,39.099 141.546,39.466 141.659 C 44.517 143.211,58.700 143.252,65.491 141.733 C 66.225 141.568,67.613 141.270,68.576 141.068 C 69.539 140.867,70.705 140.541,71.167 140.343 C 71.630 140.145,72.492 139.882,73.083 139.759 C 73.675 139.636,74.205 139.462,74.261 139.372 C 74.316 139.282,74.682 139.107,75.074 138.983 C 75.835 138.742,78.457 137.572,78.932 137.260 C 79.090 137.157,79.660 136.858,80.200 136.596 C 80.740 136.334,81.287 135.993,81.415 135.838 C 81.543 135.684,81.751 135.558,81.876 135.558 C 82.109 135.558,83.219 134.791,85.378 133.141 C 86.669 132.154,90.889 128.077,91.757 126.978 C 92.811 125.644,93.527 124.700,93.952 124.082 C 94.192 123.735,94.594 123.151,94.847 122.784 C 95.100 122.417,95.533 121.687,95.810 121.163 C 96.086 120.639,96.434 120.074,96.583 119.909 C 96.732 119.743,96.855 119.486,96.856 119.337 C 96.858 119.188,97.072 118.692,97.333 118.236 C 97.594 117.780,97.807 117.324,97.807 117.223 C 97.807 117.123,98.028 116.575,98.297 116.006 C 99.118 114.271,100.518 109.185,100.971 106.292 C 101.162 105.073,102.244 105.153,84.776 105.097 C 69.721 105.049,68.864 105.064,68.738 105.383 C 68.666 105.568,68.489 106.320,68.346 107.054 C 66.977 114.067,62.728 119.052,56.625 120.802 C 52.959 121.853,46.628 120.755,44.233 118.651 C 44.075 118.513,43.508 118.035,42.972 117.589 C 41.927 116.719,39.657 114.172,39.657 113.869 C 39.657 113.768,39.462 113.394,39.224 113.039 C 38.560 112.047,37.596 109.405,37.243 107.610 C 37.026 106.506,36.788 105.846,36.489 105.524 L 36.053 105.052 20.528 105.052 C 8.263 105.052,4.962 105.103,4.804 105.293 M99.747 106.621 C 99.642 106.726,99.454 106.748,99.329 106.671 C 99.156 106.564,99.161 106.493,99.351 106.376 C 99.676 106.175,99.996 106.372,99.747 106.621 " stroke="none" fill="#a8a8a8" fill-rule="evenodd"></path><path id="path4" d="M274.463 23.684 C 273.925 24.451,274.024 43.474,274.568 43.965 C 275.180 44.517,295.710 44.532,296.412 43.980 L 296.854 43.633 296.854 33.870 C 296.854 25.343,296.817 24.054,296.557 23.684 L 296.261 23.260 285.510 23.260 L 274.759 23.260 274.463 23.684 M296.105 24.357 C 296.119 24.708,296.114 42.493,296.100 43.232 L 296.092 43.661 285.535 43.661 L 274.978 43.661 274.860 42.946 C 274.693 41.931,274.714 24.734,274.884 24.480 C 275.155 24.074,275.685 24.053,285.844 24.038 C 295.477 24.024,296.092 24.043,296.105 24.357 M44.641 53.878 C 42.926 54.017,41.124 54.259,40.637 54.417 C 40.151 54.576,38.971 54.828,38.017 54.978 C 37.062 55.129,36.033 55.379,35.729 55.535 C 35.425 55.690,34.790 55.882,34.318 55.960 C 33.847 56.038,32.999 56.305,32.436 56.554 C 31.872 56.803,31.315 57.008,31.196 57.009 C 31.078 57.010,30.491 57.260,29.891 57.565 C 29.291 57.869,28.551 58.173,28.246 58.240 C 27.942 58.306,27.408 58.571,27.060 58.828 C 26.712 59.085,26.334 59.295,26.220 59.295 C 26.105 59.295,25.571 59.573,25.032 59.914 C 24.494 60.255,23.770 60.705,23.425 60.915 C 23.080 61.125,22.611 61.425,22.385 61.582 C 22.158 61.740,21.511 62.186,20.948 62.573 C 20.385 62.961,19.538 63.615,19.066 64.027 C 18.594 64.439,17.921 65.022,17.570 65.324 C 17.219 65.626,16.790 66.029,16.617 66.221 C 16.443 66.413,15.937 66.928,15.492 67.365 C 14.216 68.618,14.289 68.538,12.519 70.639 C 11.710 71.600,10.333 73.583,9.768 74.603 C 9.530 75.032,9.208 75.523,9.053 75.695 C 8.897 75.867,8.770 76.091,8.770 76.193 C 8.770 76.295,8.518 76.777,8.209 77.264 C 7.900 77.751,7.544 78.497,7.416 78.922 C 7.289 79.347,7.115 79.695,7.029 79.695 C 6.944 79.695,6.734 80.188,6.563 80.791 C 6.392 81.394,6.138 82.070,5.998 82.292 C 5.857 82.515,5.605 83.244,5.437 83.913 C 5.269 84.582,4.975 85.515,4.784 85.987 C 3.914 88.129,3.856 91.109,4.676 91.483 C 5.292 91.764,36.646 91.610,37.181 91.324 C 37.379 91.218,37.616 90.725,37.752 90.137 C 37.879 89.585,38.088 88.961,38.215 88.751 C 38.342 88.541,38.562 87.941,38.703 87.417 C 39.654 83.889,43.614 79.358,46.698 78.270 C 47.159 78.107,47.649 77.881,47.786 77.767 C 48.897 76.844,56.218 76.872,57.960 77.806 C 58.327 78.002,59.013 78.338,59.485 78.551 C 61.008 79.238,64.824 82.711,64.824 83.408 C 64.824 83.552,65.022 83.912,65.265 84.208 C 65.508 84.505,65.817 85.048,65.951 85.415 C 66.086 85.782,66.350 86.382,66.539 86.749 C 66.727 87.116,67.025 88.071,67.201 88.870 C 67.413 89.834,67.694 90.531,68.035 90.940 L 68.549 91.556 84.696 91.583 C 103.288 91.615,101.547 91.810,101.496 89.705 C 101.480 89.033,101.317 88.033,101.134 87.483 C 100.952 86.933,100.649 85.836,100.462 85.044 C 100.006 83.117,99.418 81.375,98.744 79.950 C 98.439 79.303,98.189 78.679,98.189 78.563 C 98.189 78.447,97.979 78.032,97.724 77.641 C 97.468 77.250,97.202 76.698,97.133 76.414 C 97.064 76.130,96.891 75.801,96.750 75.684 C 96.608 75.566,96.308 75.090,96.084 74.627 C 95.860 74.164,95.608 73.785,95.524 73.785 C 95.441 73.785,95.229 73.506,95.054 73.165 C 94.692 72.461,94.013 71.436,93.443 70.734 C 91.567 68.421,89.775 66.485,88.413 65.300 C 86.060 63.252,85.505 62.794,84.986 62.479 C 84.667 62.285,84.297 62.026,84.164 61.902 C 84.030 61.779,83.481 61.420,82.943 61.106 C 82.405 60.791,81.534 60.263,81.006 59.931 C 80.478 59.600,79.817 59.271,79.537 59.201 C 79.257 59.130,78.874 58.908,78.687 58.707 C 78.499 58.506,78.190 58.341,78.000 58.341 C 77.810 58.341,77.260 58.131,76.777 57.875 C 76.294 57.618,75.488 57.283,74.985 57.131 C 74.482 56.979,73.680 56.685,73.203 56.477 C 72.726 56.270,71.954 56.036,71.487 55.959 C 71.021 55.881,70.409 55.700,70.129 55.557 C 69.849 55.413,68.776 55.161,67.746 54.997 C 66.715 54.832,65.443 54.573,64.917 54.422 C 62.288 53.664,51.042 53.362,44.641 53.878 M168.630 53.873 C 167.344 54.014,165.677 54.339,164.840 54.612 C 164.018 54.881,163.215 55.100,163.057 55.100 C 162.048 55.100,154.888 58.954,154.073 59.936 C 153.931 60.107,153.728 60.248,153.622 60.248 C 153.404 60.248,152.569 60.972,150.238 63.180 C 147.464 65.809,147.183 66.039,146.988 65.844 C 146.883 65.739,146.793 63.753,146.778 61.191 C 146.749 56.496,146.683 56.083,145.871 55.532 C 145.158 55.047,116.722 54.906,115.993 55.383 C 114.924 56.083,114.964 55.383,114.969 73.380 C 114.973 91.137,114.966 91.005,115.907 91.509 C 116.153 91.641,121.607 91.706,132.289 91.706 L 148.302 91.706 148.893 91.209 C 149.650 90.573,149.843 90.199,150.043 88.981 C 150.231 87.845,150.414 87.379,151.145 86.175 C 151.433 85.702,151.840 85.028,152.050 84.678 C 152.795 83.432,153.898 82.374,154.975 81.871 C 155.568 81.593,156.182 81.257,156.339 81.124 C 156.707 80.813,160.435 79.886,161.318 79.886 C 162.116 79.886,165.866 80.907,166.039 81.171 C 166.104 81.271,166.359 81.460,166.604 81.589 C 167.283 81.946,168.541 83.139,168.541 83.424 C 168.541 83.563,168.701 83.789,168.895 83.926 C 169.090 84.063,169.314 84.390,169.392 84.652 C 169.470 84.914,169.752 85.508,170.018 85.972 C 170.384 86.609,170.535 87.215,170.634 88.450 C 170.802 90.530,171.031 91.079,171.881 91.434 C 173.012 91.907,204.383 91.749,204.915 91.268 C 205.327 90.895,205.669 90.068,206.285 87.949 C 206.505 87.193,206.769 86.522,206.872 86.458 C 206.976 86.394,207.175 86.069,207.315 85.735 C 208.242 83.529,211.635 81.022,214.337 80.546 C 221.035 79.367,225.812 82.809,226.782 89.514 C 227.123 91.867,225.858 91.706,244.027 91.706 C 260.842 91.706,260.258 91.745,260.737 90.598 C 261.060 89.825,261.105 86.368,260.824 83.889 C 260.723 82.998,260.507 80.873,260.345 79.166 C 260.183 77.460,259.924 75.744,259.770 75.353 C 259.616 74.962,259.365 73.984,259.213 73.178 C 259.061 72.373,258.803 71.455,258.639 71.138 C 258.475 70.821,258.341 70.446,258.341 70.304 C 258.341 70.014,256.638 66.497,256.426 66.349 C 256.351 66.296,256.129 65.942,255.933 65.562 C 254.757 63.278,249.913 58.163,248.916 58.152 C 248.818 58.151,248.560 57.984,248.343 57.780 C 247.839 57.306,245.043 55.863,244.630 55.863 C 244.458 55.863,244.135 55.735,243.911 55.578 C 243.687 55.421,242.923 55.158,242.212 54.993 C 241.501 54.829,240.614 54.565,240.240 54.408 C 237.502 53.253,224.961 53.265,221.068 54.425 C 220.229 54.675,219.255 54.938,218.903 55.009 C 217.947 55.203,213.496 57.263,212.774 57.846 C 212.617 57.973,212.250 58.179,211.958 58.303 C 211.667 58.427,211.379 58.658,211.318 58.816 C 211.258 58.974,211.098 59.104,210.964 59.104 C 210.746 59.104,209.206 60.280,208.092 61.296 C 207.863 61.506,207.407 61.892,207.079 62.154 C 206.752 62.417,205.694 63.382,204.730 64.299 C 203.765 65.217,202.913 65.968,202.836 65.968 C 202.758 65.968,202.640 66.139,202.574 66.349 C 202.386 66.942,200.953 66.719,200.953 66.097 C 200.953 65.965,200.699 65.561,200.389 65.198 C 200.079 64.835,199.821 64.468,199.817 64.383 C 199.802 64.077,196.582 60.486,195.585 59.662 C 195.024 59.199,194.454 58.670,194.317 58.486 C 194.180 58.301,193.966 58.147,193.840 58.143 C 193.715 58.139,193.316 57.881,192.953 57.571 C 192.590 57.261,192.223 57.007,192.139 57.007 C 192.054 57.007,191.645 56.792,191.230 56.530 C 190.814 56.268,190.357 56.053,190.213 56.053 C 190.070 56.053,189.575 55.853,189.113 55.608 C 185.784 53.840,176.285 53.036,168.630 53.873 M61.773 54.326 C 68.522 55.469,74.883 57.088,75.960 57.937 C 76.074 58.027,76.483 58.203,76.869 58.327 C 77.750 58.610,81.917 60.837,82.990 61.598 C 83.432 61.912,84.137 62.392,84.557 62.666 C 84.976 62.940,85.620 63.415,85.987 63.723 C 86.354 64.031,87.081 64.640,87.602 65.077 C 89.495 66.663,91.648 69.056,94.151 72.355 C 95.837 74.575,98.766 80.345,99.329 82.555 C 99.450 83.027,99.704 83.842,99.894 84.366 C 100.085 84.890,100.299 85.705,100.371 86.177 C 100.442 86.649,100.679 87.629,100.896 88.354 C 101.380 89.970,101.233 90.946,100.477 91.155 C 99.237 91.498,68.899 91.338,68.581 90.988 C 68.274 90.648,67.783 89.413,67.214 87.547 C 64.966 80.176,56.793 74.909,50.416 76.721 C 49.899 76.868,49.133 77.045,48.713 77.115 C 44.115 77.881,39.377 83.045,37.738 89.078 C 37.270 90.800,37.103 91.064,36.399 91.205 C 34.833 91.518,5.093 91.335,4.734 91.010 C 4.121 90.455,4.336 89.007,5.702 84.461 C 8.147 76.331,13.651 68.496,20.496 63.404 C 21.125 62.936,21.854 62.391,22.116 62.192 C 22.378 61.994,22.807 61.720,23.070 61.583 C 23.332 61.446,23.589 61.276,23.642 61.204 C 23.823 60.955,28.322 58.590,29.078 58.346 C 29.496 58.211,29.928 58.030,30.037 57.944 C 30.377 57.677,33.369 56.637,35.264 56.128 C 36.256 55.861,37.200 55.573,37.361 55.489 C 37.523 55.404,38.127 55.275,38.704 55.201 C 39.280 55.128,40.581 54.900,41.594 54.695 C 45.015 54.002,58.411 53.757,61.773 54.326 M343.327 54.151 C 342.515 54.244,341.528 54.415,341.135 54.531 C 340.741 54.648,339.733 54.900,338.894 55.093 C 336.707 55.595,332.292 57.269,331.554 57.877 C 331.397 58.007,330.968 58.249,330.601 58.416 C 327.119 60.000,321.263 65.302,318.113 69.723 C 317.640 70.386,315.348 74.188,315.348 74.308 C 315.348 74.357,315.148 74.795,314.903 75.282 C 313.654 77.771,312.582 80.830,311.922 83.794 C 311.736 84.633,311.486 85.663,311.367 86.082 C 309.842 91.480,309.952 109.430,311.529 112.487 C 311.610 112.645,311.738 113.203,311.814 113.727 C 311.889 114.252,312.108 115.067,312.300 115.539 C 312.492 116.010,312.752 116.868,312.878 117.445 C 313.004 118.022,313.257 118.751,313.442 119.066 C 313.626 119.380,313.883 119.981,314.014 120.400 C 314.145 120.820,314.448 121.549,314.687 122.021 C 314.927 122.493,315.378 123.396,315.688 124.027 C 316.167 125.001,316.907 126.192,318.398 128.393 C 320.104 130.909,323.364 134.255,325.565 135.748 C 327.513 137.070,328.162 137.499,329.075 138.068 C 329.652 138.428,330.424 138.840,330.791 138.983 C 331.158 139.127,331.544 139.305,331.649 139.380 C 332.654 140.096,339.157 142.109,341.182 142.331 C 341.811 142.400,342.798 142.589,343.375 142.751 C 344.990 143.204,355.773 143.322,358.246 142.913 C 362.643 142.187,363.531 142.013,364.208 141.749 C 364.604 141.594,365.333 141.380,365.829 141.272 C 367.375 140.935,371.558 139.064,373.620 137.785 C 377.806 135.192,381.620 131.477,384.129 127.550 C 384.565 126.868,385.084 126.096,385.283 125.834 C 385.481 125.572,385.747 125.043,385.873 124.658 C 385.999 124.273,386.215 123.864,386.354 123.749 C 386.493 123.633,386.715 123.152,386.847 122.680 C 386.979 122.207,387.159 121.776,387.247 121.722 C 387.433 121.607,388.142 120.077,388.388 119.261 C 388.821 117.821,388.177 117.546,382.555 116.768 C 381.401 116.608,380.200 116.400,379.886 116.305 C 379.571 116.210,378.627 116.037,377.788 115.920 C 376.949 115.803,375.577 115.579,374.738 115.422 C 367.229 114.016,365.682 114.037,365.682 115.544 C 365.682 115.659,365.474 116.198,365.221 116.742 C 364.967 117.286,364.626 118.031,364.462 118.398 C 363.958 119.527,362.529 121.565,361.587 122.498 C 359.987 124.083,357.719 125.309,355.588 125.739 C 352.989 126.265,347.071 125.937,345.723 125.193 C 345.427 125.030,344.780 124.720,344.285 124.505 C 340.283 122.764,335.990 117.708,334.973 113.537 C 334.845 113.012,334.669 112.492,334.583 112.381 C 333.986 111.610,333.579 106.339,334.068 105.718 L 334.441 105.243 361.882 105.243 C 389.069 105.243,389.327 105.240,389.704 104.862 C 390.130 104.436,390.200 101.402,389.906 96.187 C 389.648 91.616,388.230 83.576,387.237 81.056 C 387.021 80.510,386.844 79.872,386.843 79.640 C 386.843 79.408,386.705 78.961,386.537 78.646 C 386.369 78.332,386.080 77.645,385.894 77.121 C 385.429 75.812,383.916 72.682,383.328 71.817 C 383.063 71.425,382.704 70.828,382.531 70.490 C 382.245 69.930,380.079 66.956,379.793 66.730 C 379.726 66.678,379.165 66.077,378.545 65.396 C 377.283 64.008,375.203 62.177,373.057 60.565 C 371.306 59.250,366.789 56.937,364.633 56.251 C 363.899 56.017,362.998 55.706,362.631 55.558 C 362.264 55.411,361.320 55.161,360.534 55.002 C 359.747 54.844,358.546 54.580,357.865 54.416 C 356.404 54.063,345.795 53.870,343.327 54.151 M181.220 54.528 C 185.824 55.312,187.714 55.780,188.265 56.273 C 188.365 56.362,188.579 56.435,188.742 56.435 C 189.097 56.436,191.327 57.541,192.138 58.119 C 192.458 58.346,192.795 58.532,192.888 58.532 C 192.981 58.532,193.359 58.811,193.729 59.152 C 194.099 59.492,194.922 60.243,195.558 60.820 C 197.033 62.158,198.888 64.391,200.057 66.238 C 201.399 68.360,201.882 68.330,204.164 65.991 C 206.679 63.413,211.460 59.497,213.251 58.550 C 213.670 58.328,214.142 58.071,214.299 57.978 C 218.614 55.431,223.634 54.361,231.268 54.361 C 236.459 54.360,236.828 54.406,241.087 55.575 C 243.297 56.182,246.603 57.541,246.902 57.964 C 246.954 58.039,247.383 58.294,247.855 58.532 C 248.327 58.770,248.756 59.017,248.808 59.082 C 248.861 59.146,249.315 59.530,249.818 59.934 C 251.417 61.219,254.023 63.949,254.528 64.867 C 254.685 65.154,255.213 66.055,255.700 66.869 C 256.187 67.684,256.648 68.560,256.725 68.815 C 256.801 69.070,257.068 69.662,257.317 70.130 C 257.566 70.598,257.769 71.130,257.769 71.310 C 257.769 71.491,257.906 72.015,258.074 72.474 C 259.730 77.014,260.739 89.891,259.490 90.560 C 258.971 90.838,228.942 90.848,228.422 90.570 C 227.870 90.275,227.679 89.831,227.343 88.057 C 226.291 82.512,220.950 78.525,215.618 79.304 C 211.319 79.933,206.553 83.519,205.793 86.698 C 205.724 86.989,205.572 87.398,205.455 87.607 C 205.338 87.817,205.114 88.503,204.957 89.131 C 204.729 90.045,204.567 90.324,204.152 90.521 C 203.737 90.719,179.057 90.908,172.879 90.761 C 172.294 90.747,171.783 90.049,171.783 89.266 C 171.783 86.425,168.204 80.458,166.501 80.458 C 166.414 80.458,166.001 80.273,165.583 80.048 C 162.499 78.387,158.910 78.759,154.191 81.231 C 152.908 81.903,150.125 85.452,149.778 86.857 C 149.376 88.486,148.619 90.234,148.195 90.512 C 147.728 90.818,117.936 90.931,116.744 90.632 C 115.919 90.425,115.920 90.444,115.920 73.220 L 115.920 56.616 116.368 56.445 C 117.380 56.061,144.843 56.134,145.272 56.522 C 145.646 56.860,145.663 57.080,145.663 61.720 C 145.663 68.300,145.952 68.662,148.865 65.729 C 151.543 63.034,153.378 61.374,154.457 60.670 C 155.442 60.027,156.061 59.591,156.548 59.197 C 156.820 58.977,157.720 58.474,158.550 58.078 C 159.379 57.682,160.278 57.241,160.547 57.097 C 162.423 56.094,166.327 55.064,170.257 54.535 C 171.728 54.337,180.068 54.331,181.220 54.528 M354.547 54.711 C 354.851 54.812,356.387 55.075,357.960 55.296 C 359.542 55.518,361.177 55.861,361.620 56.062 C 362.060 56.263,362.789 56.482,363.240 56.550 C 363.692 56.618,364.318 56.827,364.633 57.014 C 364.948 57.200,365.588 57.455,366.056 57.580 C 366.524 57.704,367.109 57.964,367.355 58.158 C 367.601 58.352,368.119 58.614,368.506 58.740 C 368.892 58.867,369.508 59.172,369.873 59.418 C 370.238 59.665,370.630 59.867,370.744 59.867 C 370.858 59.867,371.240 60.124,371.592 60.439 C 371.944 60.753,372.313 61.010,372.411 61.010 C 372.610 61.010,373.711 61.879,374.459 62.625 C 374.725 62.890,375.006 63.108,375.083 63.108 C 375.193 63.108,376.804 64.573,377.545 65.347 C 379.146 67.019,379.981 67.948,379.981 68.056 C 379.981 68.129,380.195 68.391,380.458 68.637 C 380.720 68.883,380.934 69.187,380.934 69.311 C 380.934 69.436,381.192 69.862,381.506 70.257 C 381.821 70.653,382.078 71.081,382.078 71.209 C 382.078 71.337,382.279 71.658,382.525 71.923 C 382.771 72.189,383.122 72.780,383.304 73.238 C 383.486 73.696,383.746 74.199,383.881 74.357 C 384.017 74.514,384.235 74.986,384.366 75.405 C 384.497 75.825,384.731 76.312,384.884 76.488 C 385.038 76.664,385.244 77.167,385.342 77.605 C 385.441 78.043,385.692 78.754,385.899 79.185 C 386.107 79.615,386.417 80.656,386.587 81.496 C 386.758 82.337,387.050 83.327,387.236 83.696 C 387.430 84.079,387.632 85.060,387.708 85.987 C 387.780 86.878,387.969 87.908,388.126 88.275 C 388.612 89.410,389.623 103.863,389.242 104.244 C 389.164 104.321,376.632 104.428,361.392 104.480 L 333.683 104.576 333.290 105.029 C 332.723 105.683,332.647 106.469,332.986 108.198 C 333.150 109.037,333.411 110.435,333.565 111.305 C 333.719 112.176,334.058 113.396,334.320 114.017 C 334.581 114.638,334.795 115.265,334.795 115.411 C 334.795 115.557,335.008 115.991,335.269 116.375 C 335.530 116.759,335.797 117.288,335.863 117.550 C 335.929 117.812,336.124 118.131,336.297 118.260 C 336.471 118.389,336.707 118.708,336.822 118.970 C 337.287 120.025,341.217 123.928,341.814 123.928 C 341.929 123.928,342.237 124.142,342.499 124.404 C 342.762 124.666,343.132 124.881,343.322 124.881 C 343.512 124.881,343.973 125.088,344.346 125.342 C 344.719 125.595,345.508 125.892,346.101 126.002 C 346.694 126.111,347.459 126.354,347.803 126.542 C 348.801 127.087,354.751 127.044,355.965 126.483 C 356.440 126.263,357.283 125.974,357.838 125.840 C 358.393 125.707,358.890 125.487,358.943 125.350 C 358.995 125.213,359.353 124.973,359.738 124.816 C 360.123 124.659,360.585 124.374,360.764 124.182 C 360.943 123.990,361.474 123.532,361.945 123.165 C 362.415 122.798,362.855 122.345,362.921 122.158 C 362.988 121.971,363.228 121.617,363.456 121.372 C 363.975 120.812,364.777 119.466,365.114 118.589 C 365.255 118.222,365.516 117.730,365.694 117.495 C 365.873 117.260,366.078 116.677,366.149 116.198 C 366.359 114.800,367.277 114.694,371.211 115.617 C 371.892 115.777,373.093 115.961,373.880 116.025 C 374.666 116.089,375.868 116.307,376.550 116.509 C 377.232 116.711,378.905 117.001,380.268 117.154 C 381.631 117.306,383.344 117.606,384.076 117.819 C 384.808 118.033,385.809 118.208,386.301 118.208 C 387.657 118.208,387.755 118.285,387.610 119.236 C 387.542 119.687,387.299 120.257,387.070 120.502 C 386.841 120.748,386.654 121.067,386.654 121.212 C 386.654 121.356,386.259 122.262,385.776 123.225 C 384.450 125.869,384.225 126.269,383.772 126.787 C 383.542 127.050,383.238 127.543,383.095 127.884 C 382.952 128.224,382.761 128.503,382.669 128.503 C 382.578 128.503,382.360 128.804,382.186 129.171 C 382.012 129.538,381.742 129.838,381.587 129.838 C 381.431 129.838,381.251 129.988,381.187 130.172 C 380.907 130.968,376.373 135.367,375.831 135.367 C 375.740 135.367,375.478 135.582,375.250 135.844 C 375.022 136.106,374.703 136.320,374.540 136.320 C 374.377 136.320,374.033 136.531,373.776 136.788 C 373.519 137.045,372.944 137.432,372.498 137.648 C 372.052 137.864,371.473 138.157,371.211 138.298 C 370.032 138.933,368.567 139.556,367.779 139.758 C 367.307 139.879,366.792 140.093,366.634 140.233 C 366.477 140.374,365.499 140.666,364.462 140.882 C 363.425 141.099,362.481 141.351,362.365 141.443 C 360.767 142.710,343.511 142.589,339.734 141.285 C 339.147 141.083,338.204 140.859,337.637 140.788 C 337.070 140.716,336.343 140.499,336.020 140.306 C 335.698 140.112,334.972 139.854,334.406 139.733 C 333.841 139.612,333.161 139.357,332.895 139.167 C 332.629 138.977,332.047 138.728,331.602 138.613 C 331.156 138.497,330.791 138.323,330.791 138.225 C 330.791 138.127,330.319 137.832,329.743 137.568 C 329.166 137.304,328.694 137.013,328.694 136.921 C 328.694 136.829,328.308 136.606,327.836 136.426 C 327.364 136.246,326.978 136.035,326.978 135.958 C 326.978 135.881,326.635 135.626,326.216 135.390 C 325.796 135.154,325.364 134.795,325.256 134.592 C 325.147 134.389,324.965 134.223,324.852 134.223 C 324.739 134.223,324.420 133.999,324.144 133.726 C 323.868 133.452,323.213 132.817,322.688 132.315 C 321.212 130.902,320.046 129.596,319.749 129.024 C 319.600 128.738,319.408 128.503,319.323 128.503 C 319.238 128.503,319.002 128.182,318.799 127.788 C 318.596 127.395,318.251 126.924,318.033 126.742 C 317.814 126.559,317.636 126.248,317.636 126.050 C 317.636 125.852,317.505 125.582,317.346 125.450 C 317.046 125.201,315.348 121.847,315.348 121.503 C 315.348 121.397,315.177 121.093,314.969 120.828 C 314.761 120.563,314.494 119.887,314.376 119.325 C 314.259 118.763,314.012 118.132,313.829 117.922 C 313.646 117.712,313.385 116.983,313.249 116.301 C 313.113 115.620,312.847 114.661,312.658 114.171 C 312.469 113.682,312.184 112.309,312.023 111.121 C 311.863 109.933,311.604 108.603,311.448 108.165 C 310.777 106.278,310.902 91.294,311.609 89.017 C 311.759 88.534,311.979 87.333,312.099 86.348 C 312.219 85.363,312.444 84.301,312.601 83.988 C 312.757 83.676,313.012 82.775,313.169 81.986 C 313.326 81.198,313.611 80.253,313.803 79.886 C 313.995 79.519,314.254 78.801,314.377 78.291 C 314.501 77.781,314.725 77.241,314.874 77.091 C 315.024 76.941,315.250 76.457,315.376 76.016 C 315.502 75.575,315.715 75.083,315.850 74.922 C 315.985 74.760,316.276 74.246,316.496 73.778 C 316.716 73.310,317.105 72.635,317.361 72.279 C 317.617 71.922,317.827 71.481,317.827 71.298 C 317.827 71.115,317.948 70.919,318.096 70.862 C 318.245 70.805,318.481 70.553,318.621 70.301 C 319.047 69.535,320.184 68.022,320.639 67.616 C 320.875 67.406,321.068 67.118,321.068 66.978 C 321.068 66.837,321.273 66.629,321.523 66.514 C 321.774 66.400,322.069 66.109,322.179 65.868 C 322.289 65.626,322.543 65.377,322.743 65.313 C 322.943 65.250,323.204 64.985,323.323 64.725 C 323.441 64.465,323.670 64.252,323.832 64.252 C 323.994 64.252,324.224 64.037,324.344 63.775 C 324.463 63.513,324.640 63.298,324.736 63.298 C 324.905 63.298,326.009 62.428,327.214 61.344 C 327.535 61.056,327.908 60.820,328.044 60.820 C 328.180 60.820,328.403 60.661,328.540 60.466 C 328.677 60.271,329.004 60.047,329.266 59.967 C 329.528 59.887,330.022 59.613,330.363 59.358 C 330.704 59.102,331.262 58.800,331.602 58.686 C 331.943 58.572,332.393 58.327,332.602 58.141 C 332.812 57.955,333.370 57.703,333.842 57.580 C 334.314 57.457,334.897 57.231,335.137 57.077 C 335.378 56.922,336.227 56.629,337.023 56.426 C 337.820 56.222,338.568 55.975,338.687 55.877 C 338.805 55.778,339.844 55.559,340.995 55.389 C 342.147 55.219,343.603 54.967,344.233 54.829 C 345.604 54.528,353.715 54.436,354.547 54.711 M274.583 56.061 L 274.166 56.450 274.166 98.564 C 274.166 136.595,274.195 140.707,274.465 140.978 C 274.963 141.475,296.087 141.428,296.539 140.929 C 296.830 140.607,296.854 137.391,296.854 98.541 L 296.854 56.501 296.413 56.087 L 295.972 55.672 285.486 55.672 C 275.197 55.672,274.993 55.679,274.583 56.061 M295.988 56.612 C 296.067 56.739,296.137 113.410,296.092 140.181 L 296.092 140.705 285.534 140.705 L 274.976 140.705 274.857 140.110 C 274.523 138.439,274.733 56.838,275.071 56.641 C 275.505 56.388,295.832 56.360,295.988 56.612 M348.135 70.709 C 347.764 70.787,347.372 70.906,347.263 70.974 C 347.154 71.041,346.436 71.227,345.669 71.387 C 344.901 71.547,344.135 71.799,343.967 71.946 C 343.798 72.094,343.454 72.277,343.200 72.355 C 342.947 72.432,342.336 72.786,341.843 73.140 C 341.350 73.495,340.859 73.785,340.752 73.785 C 340.646 73.785,340.418 73.999,340.246 74.261 C 340.075 74.523,339.805 74.738,339.648 74.738 C 339.490 74.738,339.283 74.945,339.186 75.198 C 339.090 75.451,338.856 75.709,338.667 75.770 C 338.477 75.831,338.172 76.117,337.988 76.406 C 337.589 77.034,336.895 78.025,336.232 78.915 C 335.966 79.273,335.748 79.677,335.748 79.813 C 335.748 79.948,335.534 80.375,335.272 80.762 C 335.010 81.148,334.793 81.645,334.791 81.866 C 334.789 82.088,334.624 82.627,334.425 83.066 C 333.486 85.135,333.029 90.723,333.735 91.503 C 334.277 92.102,366.813 92.119,367.588 91.521 C 368.117 91.113,368.267 88.233,367.805 87.369 C 367.689 87.153,367.462 86.095,367.300 85.018 C 367.125 83.852,366.854 82.813,366.630 82.451 C 366.423 82.116,366.251 81.638,366.249 81.388 C 366.246 81.139,365.946 80.466,365.581 79.894 C 365.217 79.323,364.919 78.745,364.919 78.612 C 364.919 78.478,364.704 78.229,364.442 78.057 C 364.180 77.885,363.966 77.629,363.966 77.487 C 363.966 77.345,363.718 76.976,363.414 76.666 C 363.111 76.356,362.833 76.029,362.795 75.939 C 362.736 75.799,362.143 75.289,359.416 73.029 C 359.168 72.824,358.653 72.556,358.272 72.434 C 357.891 72.312,357.407 72.057,357.197 71.866 C 356.988 71.676,356.284 71.435,355.635 71.330 C 354.985 71.225,354.256 71.032,354.014 70.899 C 353.511 70.623,349.197 70.484,348.135 70.709 M353.909 71.679 C 356.763 72.146,359.526 73.705,362.035 76.263 C 363.073 77.320,363.556 77.923,364.389 79.199 C 364.707 79.686,365.872 82.287,365.872 82.510 C 365.872 82.643,366.083 83.356,366.341 84.093 C 366.976 85.912,367.367 89.891,366.988 90.681 L 366.725 91.230 350.649 91.230 C 334.797 91.230,334.570 91.224,334.284 90.848 C 333.918 90.366,334.046 86.908,334.478 85.605 C 334.634 85.133,334.865 84.238,334.990 83.616 C 335.116 82.993,335.466 81.996,335.769 81.400 C 336.072 80.803,336.320 80.256,336.320 80.183 C 336.320 80.110,336.535 79.770,336.797 79.426 C 337.059 79.082,337.274 78.723,337.274 78.628 C 337.275 78.399,338.465 76.999,339.697 75.778 C 341.460 74.031,343.220 73.009,346.425 71.870 C 347.450 71.506,352.125 71.386,353.909 71.679 M4.429 104.677 C 4.190 104.774,3.948 104.975,3.891 105.125 C 3.718 105.574,4.406 110.408,4.761 111.239 C 4.942 111.664,5.199 112.483,5.333 113.060 C 5.467 113.637,5.732 114.409,5.923 114.776 C 6.113 115.143,6.405 115.937,6.572 116.540 C 6.738 117.143,6.947 117.636,7.035 117.636 C 7.123 117.636,7.303 118.020,7.435 118.490 C 7.566 118.960,7.796 119.446,7.945 119.570 C 8.095 119.694,8.389 120.173,8.600 120.635 C 8.810 121.097,9.299 121.948,9.687 122.527 C 10.074 123.105,10.520 123.807,10.677 124.087 C 10.834 124.366,11.135 124.783,11.344 125.013 C 11.554 125.242,12.069 125.878,12.488 126.425 C 12.908 126.972,13.487 127.640,13.775 127.909 C 14.063 128.178,14.299 128.454,14.299 128.523 C 14.299 128.939,19.696 133.842,20.154 133.842 C 20.267 133.842,20.409 133.971,20.469 134.128 C 20.530 134.285,20.882 134.559,21.252 134.735 C 21.623 134.912,21.926 135.116,21.926 135.190 C 21.926 135.263,22.548 135.690,23.308 136.139 C 24.068 136.587,25.076 137.192,25.548 137.482 C 26.020 137.772,26.642 138.068,26.930 138.139 C 27.219 138.210,27.455 138.338,27.455 138.422 C 27.455 138.507,27.862 138.721,28.360 138.898 C 28.858 139.075,29.566 139.375,29.933 139.564 C 30.300 139.754,31.115 140.057,31.745 140.239 C 32.374 140.420,33.060 140.678,33.270 140.810 C 33.480 140.943,34.319 141.187,35.136 141.352 C 35.953 141.518,36.787 141.742,36.989 141.850 C 37.191 141.958,38.496 142.219,39.889 142.430 C 41.282 142.641,42.679 142.897,42.993 142.998 C 45.499 143.801,59.433 143.738,62.714 142.908 C 63.298 142.760,64.633 142.537,65.682 142.412 C 66.730 142.287,67.974 142.031,68.446 141.843 C 68.918 141.655,69.854 141.401,70.525 141.279 C 71.197 141.156,72.053 140.891,72.429 140.690 C 72.804 140.489,73.259 140.324,73.439 140.324 C 73.788 140.324,74.365 140.119,75.596 139.558 C 76.015 139.367,77.045 138.897,77.884 138.514 C 78.723 138.132,79.538 137.740,79.695 137.643 C 79.852 137.547,80.367 137.248,80.839 136.980 C 83.118 135.685,84.266 134.904,86.273 133.285 C 88.110 131.803,92.462 127.425,92.855 126.665 C 93.010 126.365,93.329 125.964,93.565 125.773 C 93.801 125.582,93.994 125.331,93.994 125.217 C 93.994 125.102,94.127 124.872,94.289 124.706 C 94.616 124.371,95.662 122.799,96.065 122.036 C 96.208 121.765,96.521 121.244,96.761 120.877 C 97.001 120.510,97.261 119.996,97.339 119.734 C 97.418 119.472,97.588 119.172,97.719 119.067 C 97.849 118.961,98.063 118.532,98.193 118.112 C 98.324 117.693,98.624 117.007,98.860 116.587 C 99.097 116.168,99.349 115.481,99.421 115.062 C 99.493 114.643,99.714 114.020,99.913 113.678 C 100.113 113.336,100.371 112.478,100.487 111.771 C 100.603 111.064,100.860 110.000,101.058 109.406 C 101.619 107.722,101.764 105.336,101.333 104.860 C 100.887 104.367,69.214 104.251,68.546 104.739 C 68.186 105.003,68.055 105.387,67.176 108.770 C 66.904 109.819,66.574 110.806,66.444 110.963 C 66.314 111.120,66.061 111.699,65.881 112.250 C 65.702 112.800,65.487 113.251,65.403 113.251 C 65.320 113.251,65.152 113.487,65.030 113.775 C 64.703 114.554,62.493 117.031,61.655 117.559 C 61.353 117.750,60.872 118.095,60.586 118.326 C 60.301 118.558,59.743 118.851,59.347 118.978 C 58.951 119.105,58.486 119.333,58.312 119.484 C 58.020 119.739,56.845 120.001,53.765 120.497 C 52.903 120.636,52.236 120.636,51.573 120.498 C 51.049 120.388,50.024 120.207,49.296 120.096 C 48.568 119.985,47.582 119.686,47.105 119.432 C 46.628 119.178,46.151 118.970,46.045 118.969 C 45.940 118.968,45.476 118.667,45.016 118.301 C 44.556 117.935,44.116 117.636,44.038 117.636 C 43.501 117.636,39.849 113.379,39.848 112.752 C 39.848 112.635,39.686 112.335,39.489 112.084 C 39.292 111.833,38.980 111.071,38.796 110.390 C 38.612 109.709,38.351 108.972,38.216 108.752 C 38.081 108.532,37.869 107.657,37.745 106.809 C 37.382 104.325,39.293 104.582,20.809 104.539 C 11.429 104.517,4.683 104.574,4.429 104.677 M115.512 104.845 L 115.062 105.210 115.062 122.624 C 115.062 140.653,115.072 140.916,115.779 141.320 C 116.264 141.597,140.514 141.793,145.409 141.559 C 149.389 141.369,148.904 143.963,148.904 122.882 L 148.904 105.074 148.480 104.777 C 147.753 104.268,116.144 104.333,115.512 104.845 M171.783 104.622 C 171.024 104.917,171.032 104.712,171.026 123.022 C 171.019 143.347,170.810 141.339,172.957 141.557 C 176.507 141.917,203.772 141.573,204.324 141.162 L 204.862 140.760 204.910 123.016 L 204.959 105.272 204.456 104.876 C 203.961 104.487,172.754 104.244,171.783 104.622 M227.428 104.845 L 226.978 105.209 226.922 122.433 C 226.862 141.084,226.850 140.741,227.598 141.231 C 228.301 141.692,259.268 141.750,260.124 141.292 C 261.013 140.817,261.022 140.634,260.967 122.398 L 260.915 105.209 260.465 104.845 C 259.761 104.275,228.132 104.275,227.428 104.845 M36.482 105.042 C 37.014 105.244,37.035 105.292,37.539 107.532 C 39.878 117.926,48.568 123.194,58.103 119.997 C 58.601 119.830,59.137 119.584,59.295 119.450 C 59.452 119.316,59.785 119.144,60.035 119.067 C 63.322 118.064,66.952 112.374,68.242 106.203 C 68.362 105.631,68.564 105.096,68.691 105.015 C 69.057 104.782,100.434 104.826,100.870 105.059 C 101.296 105.287,101.362 106.360,101.030 107.626 C 100.919 108.046,100.669 109.161,100.474 110.105 C 99.580 114.415,96.657 121.022,94.230 124.214 C 94.151 124.318,93.577 125.091,92.956 125.929 C 90.643 129.052,84.768 134.427,82.437 135.555 C 82.005 135.764,81.544 136.064,81.413 136.223 C 81.281 136.381,81.072 136.511,80.948 136.511 C 80.824 136.511,80.299 136.780,79.780 137.109 C 79.261 137.438,78.580 137.794,78.265 137.899 C 77.950 138.004,77.564 138.196,77.407 138.325 C 76.203 139.313,67.736 141.790,63.742 142.324 C 62.607 142.475,61.249 142.702,60.724 142.827 C 58.829 143.280,46.255 143.153,43.588 142.654 C 42.343 142.421,41.114 142.231,40.859 142.231 C 39.660 142.231,31.264 139.896,30.601 139.379 C 30.496 139.297,30.078 139.123,29.673 138.992 C 28.749 138.694,24.872 136.701,23.253 135.692 C 21.252 134.444,17.424 131.324,15.857 129.663 C 13.004 126.640,11.676 124.957,9.771 121.950 C 8.901 120.576,6.976 116.600,6.576 115.348 C 6.392 114.771,6.177 114.214,6.097 114.109 C 5.234 112.965,3.907 105.544,4.489 105.118 C 4.915 104.807,35.671 104.733,36.482 105.042 M147.818 105.958 C 148.356 107.212,148.201 140.042,147.654 140.484 C 147.224 140.833,116.521 140.987,116.175 140.642 C 115.939 140.407,115.868 106.357,116.102 105.743 L 116.292 105.243 131.902 105.243 L 147.511 105.243 147.818 105.958 M203.815 105.958 C 204.139 107.077,203.992 140.222,203.661 140.553 C 203.373 140.840,172.513 140.928,172.228 140.642 C 171.993 140.408,171.924 106.352,172.156 105.740 L 172.345 105.243 187.976 105.243 L 203.607 105.243 203.815 105.958 M259.869 105.958 C 260.194 107.075,260.046 140.221,259.714 140.553 C 259.405 140.862,245.586 140.998,235.140 140.795 L 228.239 140.661 228.038 140.083 C 227.680 139.057,227.765 106.506,228.127 105.806 L 228.418 105.243 244.039 105.243 L 259.661 105.243 259.869 105.958"
                                    fill="currentColor" />
  </symbol>
  <!-- podes adicionar mais <symbol> para outros botões -->
</svg>